<?xml version="1.0" encoding="UTF-8"?><svg id="Layer_1" xmlns="http://www.w3.org/2000/svg" viewBox="0 0 779.75 94.32"><defs><style>.cls-1{fill:#fff;}</style></defs><path class="cls-1" d="M0,3.96C0,1.32,1.32,0,3.96,0s3.96,1.32,3.96,3.96-1.32,3.96-3.96,3.96S0,6.6,0,3.96ZM0,12.6c0-2.64,1.32-3.96,3.96-3.96s3.96,1.32,3.96,3.96-1.32,3.96-3.96,3.96-3.96-1.32-3.96-3.96Zm0,8.64c0-2.64,1.32-3.96,3.96-3.96s3.96,1.32,3.96,3.96-1.32,3.96-3.96,3.96-3.96-1.32-3.96-3.96Zm0,8.64c0-2.64,1.32-3.96,3.96-3.96s3.96,1.32,3.96,3.96-1.32,3.96-3.96,3.96-3.96-1.32-3.96-3.96Zm0,8.64c0-2.64,1.32-3.96,3.96-3.96s3.96,1.32,3.96,3.96-1.32,3.96-3.96,3.96-3.96-1.32-3.96-3.96Zm0,8.64c0-2.64,1.32-3.96,3.96-3.96s3.96,1.32,3.96,3.96-1.32,3.96-3.96,3.96-3.96-1.32-3.96-3.96Zm0,8.64c0-2.64,1.32-3.96,3.96-3.96s3.96,1.32,3.96,3.96-1.32,3.96-3.96,3.96-3.96-1.32-3.96-3.96Zm0,8.64c0-2.64,1.32-3.96,3.96-3.96s3.96,1.32,3.96,3.96-1.32,3.96-3.96,3.96-3.96-1.32-3.96-3.96Zm0,8.64c0-2.64,1.32-3.96,3.96-3.96s3.96,1.32,3.96,3.96-1.32,3.96-3.96,3.96-3.96-1.32-3.96-3.96Zm0,8.64c0-2.64,1.32-3.96,3.96-3.96s3.96,1.32,3.96,3.96-1.32,3.96-3.96,3.96-3.96-1.32-3.96-3.96Zm0,8.64c0-2.64,1.32-3.96,3.96-3.96s3.96,1.32,3.96,3.96-1.32,3.96-3.96,3.96-3.96-1.32-3.96-3.96ZM8.64,3.96c0-2.64,1.32-3.96,3.96-3.96s3.96,1.32,3.96,3.96-1.32,3.96-3.96,3.96-3.96-1.32-3.96-3.96Zm0,8.64c0-2.64,1.32-3.96,3.96-3.96s3.96,1.32,3.96,3.96-1.32,3.96-3.96,3.96-3.96-1.32-3.96-3.96Zm0,8.64c0-2.64,1.32-3.96,3.96-3.96s3.96,1.32,3.96,3.96-1.32,3.96-3.96,3.96-3.96-1.32-3.96-3.96Zm0,8.64c0-2.64,1.32-3.96,3.96-3.96s3.96,1.32,3.96,3.96-1.32,3.96-3.96,3.96-3.96-1.32-3.96-3.96Zm0,8.64c0-2.64,1.32-3.96,3.96-3.96s3.96,1.32,3.96,3.96-1.32,3.96-3.96,3.96-3.96-1.32-3.96-3.96Zm0,8.64c0-2.64,1.32-3.96,3.96-3.96s3.96,1.32,3.96,3.96-1.32,3.96-3.96,3.96-3.96-1.32-3.96-3.96Zm0,8.64c0-2.64,1.32-3.96,3.96-3.96s3.96,1.32,3.96,3.96-1.32,3.96-3.96,3.96-3.96-1.32-3.96-3.96Zm0,8.64c0-2.64,1.32-3.96,3.96-3.96s3.96,1.32,3.96,3.96-1.32,3.96-3.96,3.96-3.96-1.32-3.96-3.96Zm0,8.64c0-2.64,1.32-3.96,3.96-3.96s3.96,1.32,3.96,3.96-1.32,3.96-3.96,3.96-3.96-1.32-3.96-3.96Zm0,8.64c0-2.64,1.32-3.96,3.96-3.96s3.96,1.32,3.96,3.96-1.32,3.96-3.96,3.96-3.96-1.32-3.96-3.96Zm0,8.64c0-2.64,1.32-3.96,3.96-3.96s3.96,1.32,3.96,3.96-1.32,3.96-3.96,3.96-3.96-1.32-3.96-3.96ZM17.28,3.96c0-2.64,1.32-3.96,3.96-3.96s3.96,1.32,3.96,3.96-1.32,3.96-3.96,3.96-3.96-1.32-3.96-3.96Zm0,8.64c0-2.64,1.32-3.96,3.96-3.96s3.96,1.32,3.96,3.96-1.32,3.96-3.96,3.96-3.96-1.32-3.96-3.96Zm0,34.56c0-2.64,1.32-3.96,3.96-3.96s3.96,1.32,3.96,3.96-1.32,3.96-3.96,3.96-3.96-1.32-3.96-3.96Zm0,8.64c0-2.64,1.32-3.96,3.96-3.96s3.96,1.32,3.96,3.96-1.32,3.96-3.96,3.96-3.96-1.32-3.96-3.96Zm0,25.92c0-2.64,1.32-3.96,3.96-3.96s3.96,1.32,3.96,3.96-1.32,3.96-3.96,3.96-3.96-1.32-3.96-3.96Zm0,8.64c0-2.64,1.32-3.96,3.96-3.96s3.96,1.32,3.96,3.96-1.32,3.96-3.96,3.96-3.96-1.32-3.96-3.96ZM25.92,3.96c0-2.64,1.32-3.96,3.96-3.96s3.96,1.32,3.96,3.96-1.32,3.96-3.96,3.96-3.96-1.32-3.96-3.96Zm0,8.64c0-2.64,1.32-3.96,3.96-3.96s3.96,1.32,3.96,3.96-1.32,3.96-3.96,3.96-3.96-1.32-3.96-3.96Zm0,34.56c0-2.64,1.32-3.96,3.96-3.96s3.96,1.32,3.96,3.96-1.32,3.96-3.96,3.96-3.96-1.32-3.96-3.96Zm0,8.64c0-2.64,1.32-3.96,3.96-3.96s3.96,1.32,3.96,3.96-1.32,3.96-3.96,3.96-3.96-1.32-3.96-3.96Zm0,25.92c0-2.64,1.32-3.96,3.96-3.96s3.96,1.32,3.96,3.96-1.32,3.96-3.96,3.96-3.96-1.32-3.96-3.96Zm0,8.64c0-2.64,1.32-3.96,3.96-3.96s3.96,1.32,3.96,3.96-1.32,3.96-3.96,3.96-3.96-1.32-3.96-3.96ZM34.56,3.96c0-2.64,1.32-3.96,3.96-3.96s3.96,1.32,3.96,3.96-1.32,3.96-3.96,3.96-3.96-1.32-3.96-3.96Zm0,8.64c0-2.64,1.32-3.96,3.96-3.96s3.96,1.32,3.96,3.96-1.32,3.96-3.96,3.96-3.96-1.32-3.96-3.96Zm0,34.56c0-2.64,1.32-3.96,3.96-3.96s3.96,1.32,3.96,3.96-1.32,3.96-3.96,3.96-3.96-1.32-3.96-3.96Zm0,8.64c0-2.64,1.32-3.96,3.96-3.96s3.96,1.32,3.96,3.96-1.32,3.96-3.96,3.96-3.96-1.32-3.96-3.96Zm0,25.92c0-2.64,1.32-3.96,3.96-3.96s3.96,1.32,3.96,3.96-1.32,3.96-3.96,3.96-3.96-1.32-3.96-3.96Zm0,8.64c0-2.64,1.32-3.96,3.96-3.96s3.96,1.32,3.96,3.96-1.32,3.96-3.96,3.96-3.96-1.32-3.96-3.96Z"/><path class="cls-1" d="M53.64,3.96c0-2.64,1.32-3.96,3.96-3.96s3.96,1.32,3.96,3.96-1.32,3.96-3.96,3.96-3.96-1.32-3.96-3.96Zm0,8.64c0-2.64,1.32-3.96,3.96-3.96s3.96,1.32,3.96,3.96-1.32,3.96-3.96,3.96-3.96-1.32-3.96-3.96Zm0,43.2c0-2.64,1.32-3.96,3.96-3.96s3.96,1.32,3.96,3.96-1.32,3.96-3.96,3.96-3.96-1.32-3.96-3.96Zm0,8.64c0-2.64,1.32-3.96,3.96-3.96s3.96,1.32,3.96,3.96-1.32,3.96-3.96,3.96-3.96-1.32-3.96-3.96Zm0,8.64c0-2.64,1.32-3.96,3.96-3.96s3.96,1.32,3.96,3.96-1.32,3.96-3.96,3.96-3.96-1.32-3.96-3.96Zm0,8.64c0-2.64,1.32-3.96,3.96-3.96s3.96,1.32,3.96,3.96-1.32,3.96-3.96,3.96-3.96-1.32-3.96-3.96Zm0,8.64c0-2.64,1.32-3.96,3.96-3.96s3.96,1.32,3.96,3.96-1.32,3.96-3.96,3.96-3.96-1.32-3.96-3.96ZM62.28,3.96c0-2.64,1.32-3.96,3.96-3.96s3.96,1.32,3.96,3.96-1.32,3.96-3.96,3.96-3.96-1.32-3.96-3.96Zm0,8.64c0-2.64,1.32-3.96,3.96-3.96s3.96,1.32,3.96,3.96-1.32,3.96-3.96,3.96-3.96-1.32-3.96-3.96Zm0,34.56c0-2.64,1.32-3.96,3.96-3.96s3.96,1.32,3.96,3.96-1.32,3.96-3.96,3.96-3.96-1.32-3.96-3.96Zm0,8.64c0-2.64,1.32-3.96,3.96-3.96s3.96,1.32,3.96,3.96-1.32,3.96-3.96,3.96-3.96-1.32-3.96-3.96Zm0,8.64c0-2.64,1.32-3.96,3.96-3.96s3.96,1.32,3.96,3.96-1.32,3.96-3.96,3.96-3.96-1.32-3.96-3.96Zm0,8.64c0-2.64,1.32-3.96,3.96-3.96s3.96,1.32,3.96,3.96-1.32,3.96-3.96,3.96-3.96-1.32-3.96-3.96Zm0,8.64c0-2.64,1.32-3.96,3.96-3.96s3.96,1.32,3.96,3.96-1.32,3.96-3.96,3.96-3.96-1.32-3.96-3.96Zm0,8.64c0-2.64,1.32-3.96,3.96-3.96s3.96,1.32,3.96,3.96-1.32,3.96-3.96,3.96-3.96-1.32-3.96-3.96ZM70.92,3.96c0-2.64,1.32-3.96,3.96-3.96s3.96,1.32,3.96,3.96-1.32,3.96-3.96,3.96-3.96-1.32-3.96-3.96Zm0,8.64c0-2.64,1.32-3.96,3.96-3.96s3.96,1.32,3.96,3.96-1.32,3.96-3.96,3.96-3.96-1.32-3.96-3.96Zm0,25.92c0-2.64,1.32-3.96,3.96-3.96s3.96,1.32,3.96,3.96-1.32,3.96-3.96,3.96-3.96-1.32-3.96-3.96Zm0,8.64c0-2.64,1.32-3.96,3.96-3.96s3.96,1.32,3.96,3.96-1.32,3.96-3.96,3.96-3.96-1.32-3.96-3.96Zm0,8.64c0-2.64,1.32-3.96,3.96-3.96s3.96,1.32,3.96,3.96-1.32,3.96-3.96,3.96-3.96-1.32-3.96-3.96Zm0,25.92c0-2.64,1.32-3.96,3.96-3.96s3.96,1.32,3.96,3.96-1.32,3.96-3.96,3.96-3.96-1.32-3.96-3.96Zm0,8.64c0-2.64,1.32-3.96,3.96-3.96s3.96,1.32,3.96,3.96-1.32,3.96-3.96,3.96-3.96-1.32-3.96-3.96ZM79.56,3.96c0-2.64,1.32-3.96,3.96-3.96s3.96,1.32,3.96,3.96-1.32,3.96-3.96,3.96-3.96-1.32-3.96-3.96Zm0,8.64c0-2.64,1.32-3.96,3.96-3.96s3.96,1.32,3.96,3.96-1.32,3.96-3.96,3.96-3.96-1.32-3.96-3.96Zm0,17.28c0-2.64,1.32-3.96,3.96-3.96s3.96,1.32,3.96,3.96-1.32,3.96-3.96,3.96-3.96-1.32-3.96-3.96Zm0,8.64c0-2.64,1.32-3.96,3.96-3.96s3.96,1.32,3.96,3.96-1.32,3.96-3.96,3.96-3.96-1.32-3.96-3.96Zm0,8.64c0-2.64,1.32-3.96,3.96-3.96s3.96,1.32,3.96,3.96-1.32,3.96-3.96,3.96-3.96-1.32-3.96-3.96Zm0,34.56c0-2.64,1.32-3.96,3.96-3.96s3.96,1.32,3.96,3.96-1.32,3.96-3.96,3.96-3.96-1.32-3.96-3.96Zm0,8.64c0-2.64,1.32-3.96,3.96-3.96s3.96,1.32,3.96,3.96-1.32,3.96-3.96,3.96-3.96-1.32-3.96-3.96ZM88.2,3.96c0-2.64,1.32-3.96,3.96-3.96s3.96,1.32,3.96,3.96-1.32,3.96-3.96,3.96-3.96-1.32-3.96-3.96Zm0,8.64c0-2.64,1.32-3.96,3.96-3.96s3.96,1.32,3.96,3.96-1.32,3.96-3.96,3.96-3.96-1.32-3.96-3.96Zm0,8.64c0-2.64,1.32-3.96,3.96-3.96s3.96,1.32,3.96,3.96-1.32,3.96-3.96,3.96-3.96-1.32-3.96-3.96Zm0,8.64c0-2.64,1.32-3.96,3.96-3.96s3.96,1.32,3.96,3.96-1.32,3.96-3.96,3.96-3.96-1.32-3.96-3.96Zm0,8.64c0-2.64,1.32-3.96,3.96-3.96s3.96,1.32,3.96,3.96-1.32,3.96-3.96,3.96-3.96-1.32-3.96-3.96Zm0,43.2c0-2.64,1.32-3.96,3.96-3.96s3.96,1.32,3.96,3.96-1.32,3.96-3.96,3.96-3.96-1.32-3.96-3.96Zm0,8.64c0-2.64,1.32-3.96,3.96-3.96s3.96,1.32,3.96,3.96-1.32,3.96-3.96,3.96-3.96-1.32-3.96-3.96ZM96.84,3.96c0-2.64,1.32-3.96,3.96-3.96s3.96,1.32,3.96,3.96-1.32,3.96-3.96,3.96-3.96-1.32-3.96-3.96Zm0,8.64c0-2.64,1.32-3.96,3.96-3.96s3.96,1.32,3.96,3.96-1.32,3.96-3.96,3.96-3.96-1.32-3.96-3.96Zm0,8.64c0-2.64,1.32-3.96,3.96-3.96s3.96,1.32,3.96,3.96-1.32,3.96-3.96,3.96-3.96-1.32-3.96-3.96Zm0,8.64c0-2.64,1.32-3.96,3.96-3.96s3.96,1.32,3.96,3.96-1.32,3.96-3.96,3.96-3.96-1.32-3.96-3.96Zm0,51.84c0-2.64,1.32-3.96,3.96-3.96s3.96,1.32,3.96,3.96-1.32,3.96-3.96,3.96-3.96-1.32-3.96-3.96Zm0,8.64c0-2.64,1.32-3.96,3.96-3.96s3.96,1.32,3.96,3.96-1.32,3.96-3.96,3.96-3.96-1.32-3.96-3.96Z"/><path class="cls-1" d="M115.8,55.8c0-2.64,1.32-3.96,3.96-3.96s3.96,1.32,3.96,3.96-1.32,3.96-3.96,3.96-3.96-1.32-3.96-3.96Zm0,8.64c0-2.64,1.32-3.96,3.96-3.96s3.96,1.32,3.96,3.96-1.32,3.96-3.96,3.96-3.96-1.32-3.96-3.96Zm8.64-8.64c0-2.64,1.32-3.96,3.96-3.96s3.96,1.32,3.96,3.96-1.32,3.96-3.96,3.96-3.96-1.32-3.96-3.96Zm0,8.64c0-2.64,1.32-3.96,3.96-3.96s3.96,1.32,3.96,3.96-1.32,3.96-3.96,3.96-3.96-1.32-3.96-3.96Zm8.64-8.64c0-2.64,1.32-3.96,3.96-3.96s3.96,1.32,3.96,3.96-1.32,3.96-3.96,3.96-3.96-1.32-3.96-3.96Zm0,8.64c0-2.64,1.32-3.96,3.96-3.96s3.96,1.32,3.96,3.96-1.32,3.96-3.96,3.96-3.96-1.32-3.96-3.96Zm8.64-8.64c0-2.64,1.32-3.96,3.96-3.96s3.96,1.32,3.96,3.96-1.32,3.96-3.96,3.96-3.96-1.32-3.96-3.96Zm0,8.64c0-2.64,1.32-3.96,3.96-3.96s3.96,1.32,3.96,3.96-1.32,3.96-3.96,3.96-3.96-1.32-3.96-3.96Z"/><path class="cls-1" d="M160.8,3.96c0-2.64,1.32-3.96,3.96-3.96s3.96,1.32,3.96,3.96-1.32,3.96-3.96,3.96-3.96-1.32-3.96-3.96Zm0,8.64c0-2.64,1.32-3.96,3.96-3.96s3.96,1.32,3.96,3.96-1.32,3.96-3.96,3.96-3.96-1.32-3.96-3.96Zm0,8.64c0-2.64,1.32-3.96,3.96-3.96s3.96,1.32,3.96,3.96-1.32,3.96-3.96,3.96-3.96-1.32-3.96-3.96Zm0,8.64c0-2.64,1.32-3.96,3.96-3.96s3.96,1.32,3.96,3.96-1.32,3.96-3.96,3.96-3.96-1.32-3.96-3.96Zm0,8.64c0-2.64,1.32-3.96,3.96-3.96s3.96,1.32,3.96,3.96-1.32,3.96-3.96,3.96-3.96-1.32-3.96-3.96Zm0,8.64c0-2.64,1.32-3.96,3.96-3.96s3.96,1.32,3.96,3.96-1.32,3.96-3.96,3.96-3.96-1.32-3.96-3.96Zm0,8.64c0-2.64,1.32-3.96,3.96-3.96s3.96,1.32,3.96,3.96-1.32,3.96-3.96,3.96-3.96-1.32-3.96-3.96Zm0,8.64c0-2.64,1.32-3.96,3.96-3.96s3.96,1.32,3.96,3.96-1.32,3.96-3.96,3.96-3.96-1.32-3.96-3.96Zm0,8.64c0-2.64,1.32-3.96,3.96-3.96s3.96,1.32,3.96,3.96-1.32,3.96-3.96,3.96-3.96-1.32-3.96-3.96Zm0,8.64c0-2.64,1.32-3.96,3.96-3.96s3.96,1.32,3.96,3.96-1.32,3.96-3.96,3.96-3.96-1.32-3.96-3.96Zm0,8.64c0-2.64,1.32-3.96,3.96-3.96s3.96,1.32,3.96,3.96-1.32,3.96-3.96,3.96-3.96-1.32-3.96-3.96ZM169.44,3.96c0-2.64,1.32-3.96,3.96-3.96s3.96,1.32,3.96,3.96-1.32,3.96-3.96,3.96-3.96-1.32-3.96-3.96Zm0,8.64c0-2.64,1.32-3.96,3.96-3.96s3.96,1.32,3.96,3.96-1.32,3.96-3.96,3.96-3.96-1.32-3.96-3.96Zm0,8.64c0-2.64,1.32-3.96,3.96-3.96s3.96,1.32,3.96,3.96-1.32,3.96-3.96,3.96-3.96-1.32-3.96-3.96Zm0,8.64c0-2.64,1.32-3.96,3.96-3.96s3.96,1.32,3.96,3.96-1.32,3.96-3.96,3.96-3.96-1.32-3.96-3.96Zm0,8.64c0-2.64,1.32-3.96,3.96-3.96s3.96,1.32,3.96,3.96-1.32,3.96-3.96,3.96-3.96-1.32-3.96-3.96Zm0,8.64c0-2.64,1.32-3.96,3.96-3.96s3.96,1.32,3.96,3.96-1.32,3.96-3.96,3.96-3.96-1.32-3.96-3.96Zm0,8.64c0-2.64,1.32-3.96,3.96-3.96s3.96,1.32,3.96,3.96-1.32,3.96-3.96,3.96-3.96-1.32-3.96-3.96Zm0,8.64c0-2.64,1.32-3.96,3.96-3.96s3.96,1.32,3.96,3.96-1.32,3.96-3.96,3.96-3.96-1.32-3.96-3.96Zm0,8.64c0-2.64,1.32-3.96,3.96-3.96s3.96,1.32,3.96,3.96-1.32,3.96-3.96,3.96-3.96-1.32-3.96-3.96Zm0,8.64c0-2.64,1.32-3.96,3.96-3.96s3.96,1.32,3.96,3.96-1.32,3.96-3.96,3.96-3.96-1.32-3.96-3.96Zm0,8.64c0-2.64,1.32-3.96,3.96-3.96s3.96,1.32,3.96,3.96-1.32,3.96-3.96,3.96-3.96-1.32-3.96-3.96ZM178.08,3.96c0-2.64,1.32-3.96,3.96-3.96s3.96,1.32,3.96,3.96-1.32,3.96-3.96,3.96-3.96-1.32-3.96-3.96Zm0,8.64c0-2.64,1.32-3.96,3.96-3.96s3.96,1.32,3.96,3.96-1.32,3.96-3.96,3.96-3.96-1.32-3.96-3.96Zm0,43.2c0-2.64,1.32-3.96,3.96-3.96s3.96,1.32,3.96,3.96-1.32,3.96-3.96,3.96-3.96-1.32-3.96-3.96Zm0,8.64c0-2.64,1.32-3.96,3.96-3.96s3.96,1.32,3.96,3.96-1.32,3.96-3.96,3.96-3.96-1.32-3.96-3.96ZM186.72,3.96c0-2.64,1.32-3.96,3.96-3.96s3.96,1.32,3.96,3.96-1.32,3.96-3.96,3.96-3.96-1.32-3.96-3.96Zm0,8.64c0-2.64,1.32-3.96,3.96-3.96s3.96,1.32,3.96,3.96-1.32,3.96-3.96,3.96-3.96-1.32-3.96-3.96Zm0,43.2c0-2.64,1.32-3.96,3.96-3.96s3.96,1.32,3.96,3.96-1.32,3.96-3.96,3.96-3.96-1.32-3.96-3.96Zm0,8.64c0-2.64,1.32-3.96,3.96-3.96s3.96,1.32,3.96,3.96-1.32,3.96-3.96,3.96-3.96-1.32-3.96-3.96ZM195.36,3.96c0-2.64,1.32-3.96,3.96-3.96s3.96,1.32,3.96,3.96-1.32,3.96-3.96,3.96-3.96-1.32-3.96-3.96Zm0,8.64c0-2.64,1.32-3.96,3.96-3.96s3.96,1.32,3.96,3.96-1.32,3.96-3.96,3.96-3.96-1.32-3.96-3.96Zm0,8.64c0-2.64,1.32-3.96,3.96-3.96s3.96,1.32,3.96,3.96-1.32,3.96-3.96,3.96-3.96-1.32-3.96-3.96Zm0,8.64c0-2.64,1.32-3.96,3.96-3.96s3.96,1.32,3.96,3.96-1.32,3.96-3.96,3.96-3.96-1.32-3.96-3.96Zm0,8.64c0-2.64,1.32-3.96,3.96-3.96s3.96,1.32,3.96,3.96-1.32,3.96-3.96,3.96-3.96-1.32-3.96-3.96Zm0,8.64c0-2.64,1.32-3.96,3.96-3.96s3.96,1.32,3.96,3.96-1.32,3.96-3.96,3.96-3.96-1.32-3.96-3.96Zm0,8.64c0-2.64,1.32-3.96,3.96-3.96s3.96,1.32,3.96,3.96-1.32,3.96-3.96,3.96-3.96-1.32-3.96-3.96Zm0,8.64c0-2.64,1.32-3.96,3.96-3.96s3.96,1.32,3.96,3.96-1.32,3.96-3.96,3.96-3.96-1.32-3.96-3.96Zm0,8.64c0-2.64,1.32-3.96,3.96-3.96s3.96,1.32,3.96,3.96-1.32,3.96-3.96,3.96-3.96-1.32-3.96-3.96Zm0,8.64c0-2.64,1.32-3.96,3.96-3.96s3.96,1.32,3.96,3.96-1.32,3.96-3.96,3.96-3.96-1.32-3.96-3.96Zm0,8.64c0-2.64,1.32-3.96,3.96-3.96s3.96,1.32,3.96,3.96-1.32,3.96-3.96,3.96-3.96-1.32-3.96-3.96Zm8.64-77.76c0-2.64,1.32-3.96,3.96-3.96s3.96,1.32,3.96,3.96-1.32,3.96-3.96,3.96-3.96-1.32-3.96-3.96Zm0,8.64c0-2.64,1.32-3.96,3.96-3.96s3.96,1.32,3.96,3.96-1.32,3.96-3.96,3.96-3.96-1.32-3.96-3.96Zm0,8.64c0-2.64,1.32-3.96,3.96-3.96s3.96,1.32,3.96,3.96-1.32,3.96-3.96,3.96-3.96-1.32-3.96-3.96Zm0,8.64c0-2.64,1.32-3.96,3.96-3.96s3.96,1.32,3.96,3.96-1.32,3.96-3.96,3.96-3.96-1.32-3.96-3.96Zm0,8.64c0-2.64,1.32-3.96,3.96-3.96s3.96,1.32,3.96,3.96-1.32,3.96-3.96,3.96-3.96-1.32-3.96-3.96Zm0,8.64c0-2.64,1.32-3.96,3.96-3.96s3.96,1.32,3.96,3.96-1.32,3.96-3.96,3.96-3.96-1.32-3.96-3.96Zm0,17.28c0-2.64,1.32-3.96,3.96-3.96s3.96,1.32,3.96,3.96-1.32,3.96-3.96,3.96-3.96-1.32-3.96-3.96Zm0,8.64c0-2.64,1.32-3.96,3.96-3.96s3.96,1.32,3.96,3.96-1.32,3.96-3.96,3.96-3.96-1.32-3.96-3.96Zm0,8.64c0-2.64,1.32-3.96,3.96-3.96s3.96,1.32,3.96,3.96-1.32,3.96-3.96,3.96-3.96-1.32-3.96-3.96Z"/><path class="cls-1" d="M222.96,12.6c0-2.64,1.32-3.96,3.96-3.96s3.96,1.32,3.96,3.96-1.32,3.96-3.96,3.96-3.96-1.32-3.96-3.96Zm0,8.64c0-2.64,1.32-3.96,3.96-3.96s3.96,1.32,3.96,3.96-1.32,3.96-3.96,3.96-3.96-1.32-3.96-3.96Zm0,8.64c0-2.64,1.32-3.96,3.96-3.96s3.96,1.32,3.96,3.96-1.32,3.96-3.96,3.96-3.96-1.32-3.96-3.96Zm0,8.64c0-2.64,1.32-3.96,3.96-3.96s3.96,1.32,3.96,3.96-1.32,3.96-3.96,3.96-3.96-1.32-3.96-3.96Zm0,8.64c0-2.64,1.32-3.96,3.96-3.96s3.96,1.32,3.96,3.96-1.32,3.96-3.96,3.96-3.96-1.32-3.96-3.96Zm0,8.64c0-2.64,1.32-3.96,3.96-3.96s3.96,1.32,3.96,3.96-1.32,3.96-3.96,3.96-3.96-1.32-3.96-3.96Zm0,8.64c0-2.64,1.32-3.96,3.96-3.96s3.96,1.32,3.96,3.96-1.32,3.96-3.96,3.96-3.96-1.32-3.96-3.96Zm0,8.64c0-2.64,1.32-3.96,3.96-3.96s3.96,1.32,3.96,3.96-1.32,3.96-3.96,3.96-3.96-1.32-3.96-3.96Zm0,8.64c0-2.64,1.32-3.96,3.96-3.96s3.96,1.32,3.96,3.96-1.32,3.96-3.96,3.96-3.96-1.32-3.96-3.96Zm0,8.64c0-2.64,1.32-3.96,3.96-3.96s3.96,1.32,3.96,3.96-1.32,3.96-3.96,3.96-3.96-1.32-3.96-3.96ZM231.6,3.96c0-2.64,1.32-3.96,3.96-3.96s3.96,1.32,3.96,3.96-1.32,3.96-3.96,3.96-3.96-1.32-3.96-3.96Zm0,8.64c0-2.64,1.32-3.96,3.96-3.96s3.96,1.32,3.96,3.96-1.32,3.96-3.96,3.96-3.96-1.32-3.96-3.96Zm0,8.64c0-2.64,1.32-3.96,3.96-3.96s3.96,1.32,3.96,3.96-1.32,3.96-3.96,3.96-3.96-1.32-3.96-3.96Zm0,8.64c0-2.64,1.32-3.96,3.96-3.96s3.96,1.32,3.96,3.96-1.32,3.96-3.96,3.96-3.96-1.32-3.96-3.96Zm0,8.64c0-2.64,1.32-3.96,3.96-3.96s3.96,1.32,3.96,3.96-1.32,3.96-3.96,3.96-3.96-1.32-3.96-3.96Zm0,8.64c0-2.64,1.32-3.96,3.96-3.96s3.96,1.32,3.96,3.96-1.32,3.96-3.96,3.96-3.96-1.32-3.96-3.96Zm0,8.64c0-2.64,1.32-3.96,3.96-3.96s3.96,1.32,3.96,3.96-1.32,3.96-3.96,3.96-3.96-1.32-3.96-3.96Zm0,8.64c0-2.64,1.32-3.96,3.96-3.96s3.96,1.32,3.96,3.96-1.32,3.96-3.96,3.96-3.96-1.32-3.96-3.96Zm0,8.64c0-2.64,1.32-3.96,3.96-3.96s3.96,1.32,3.96,3.96-1.32,3.96-3.96,3.96-3.96-1.32-3.96-3.96Zm0,8.64c0-2.64,1.32-3.96,3.96-3.96s3.96,1.32,3.96,3.96-1.32,3.96-3.96,3.96-3.96-1.32-3.96-3.96Zm0,8.64c0-2.64,1.32-3.96,3.96-3.96s3.96,1.32,3.96,3.96-1.32,3.96-3.96,3.96-3.96-1.32-3.96-3.96ZM240.24,3.96c0-2.64,1.32-3.96,3.96-3.96s3.96,1.32,3.96,3.96-1.32,3.96-3.96,3.96-3.96-1.32-3.96-3.96Zm0,8.64c0-2.64,1.32-3.96,3.96-3.96s3.96,1.32,3.96,3.96-1.32,3.96-3.96,3.96-3.96-1.32-3.96-3.96Zm0,51.84c0-2.64,1.32-3.96,3.96-3.96s3.96,1.32,3.96,3.96-1.32,3.96-3.96,3.96-3.96-1.32-3.96-3.96Zm0,8.64c0-2.64,1.32-3.96,3.96-3.96s3.96,1.32,3.96,3.96-1.32,3.96-3.96,3.96-3.96-1.32-3.96-3.96ZM248.88,3.96c0-2.64,1.32-3.96,3.96-3.96s3.96,1.32,3.96,3.96-1.32,3.96-3.96,3.96-3.96-1.32-3.96-3.96Zm0,8.64c0-2.64,1.32-3.96,3.96-3.96s3.96,1.32,3.96,3.96-1.32,3.96-3.96,3.96-3.96-1.32-3.96-3.96Zm0,51.84c0-2.64,1.32-3.96,3.96-3.96s3.96,1.32,3.96,3.96-1.32,3.96-3.96,3.96-3.96-1.32-3.96-3.96Zm0,8.64c0-2.64,1.32-3.96,3.96-3.96s3.96,1.32,3.96,3.96-1.32,3.96-3.96,3.96-3.96-1.32-3.96-3.96ZM257.52,3.96c0-2.64,1.32-3.96,3.96-3.96s3.96,1.32,3.96,3.96-1.32,3.96-3.96,3.96-3.96-1.32-3.96-3.96Zm0,8.64c0-2.64,1.32-3.96,3.96-3.96s3.96,1.32,3.96,3.96-1.32,3.96-3.96,3.96-3.96-1.32-3.96-3.96Zm0,8.64c0-2.64,1.32-3.96,3.96-3.96s3.96,1.32,3.96,3.96-1.32,3.96-3.96,3.96-3.96-1.32-3.96-3.96Zm0,8.64c0-2.64,1.32-3.96,3.96-3.96s3.96,1.32,3.96,3.96-1.32,3.96-3.96,3.96-3.96-1.32-3.96-3.96Zm0,8.64c0-2.64,1.32-3.96,3.96-3.96s3.96,1.32,3.96,3.96-1.32,3.96-3.96,3.96-3.96-1.32-3.96-3.96Zm0,8.64c0-2.64,1.32-3.96,3.96-3.96s3.96,1.32,3.96,3.96-1.32,3.96-3.96,3.96-3.96-1.32-3.96-3.96Zm0,8.64c0-2.64,1.32-3.96,3.96-3.96s3.96,1.32,3.96,3.96-1.32,3.96-3.96,3.96-3.96-1.32-3.96-3.96Zm0,8.64c0-2.64,1.32-3.96,3.96-3.96s3.96,1.32,3.96,3.96-1.32,3.96-3.96,3.96-3.96-1.32-3.96-3.96Zm0,8.64c0-2.64,1.32-3.96,3.96-3.96s3.96,1.32,3.96,3.96-1.32,3.96-3.96,3.96-3.96-1.32-3.96-3.96Zm0,8.64c0-2.64,1.32-3.96,3.96-3.96s3.96,1.32,3.96,3.96-1.32,3.96-3.96,3.96-3.96-1.32-3.96-3.96Zm0,8.64c0-2.64,1.32-3.96,3.96-3.96s3.96,1.32,3.96,3.96-1.32,3.96-3.96,3.96-3.96-1.32-3.96-3.96Zm8.64-77.76c0-2.64,1.32-3.96,3.96-3.96s3.96,1.32,3.96,3.96-1.32,3.96-3.96,3.96-3.96-1.32-3.96-3.96Zm0,8.64c0-2.64,1.32-3.96,3.96-3.96s3.96,1.32,3.96,3.96-1.32,3.96-3.96,3.96-3.96-1.32-3.96-3.96Zm0,8.64c0-2.64,1.32-3.96,3.96-3.96s3.96,1.32,3.96,3.96-1.32,3.96-3.96,3.96-3.96-1.32-3.96-3.96Zm0,8.64c0-2.64,1.32-3.96,3.96-3.96s3.96,1.32,3.96,3.96-1.32,3.96-3.96,3.96-3.96-1.32-3.96-3.96Zm0,8.64c0-2.64,1.32-3.96,3.96-3.96s3.96,1.32,3.96,3.96-1.32,3.96-3.96,3.96-3.96-1.32-3.96-3.96Zm0,8.64c0-2.64,1.32-3.96,3.96-3.96s3.96,1.32,3.96,3.96-1.32,3.96-3.96,3.96-3.96-1.32-3.96-3.96Zm0,8.64c0-2.64,1.32-3.96,3.96-3.96s3.96,1.32,3.96,3.96-1.32,3.96-3.96,3.96-3.96-1.32-3.96-3.96Zm0,8.64c0-2.64,1.32-3.96,3.96-3.96s3.96,1.32,3.96,3.96-1.32,3.96-3.96,3.96-3.96-1.32-3.96-3.96Zm0,8.64c0-2.64,1.32-3.96,3.96-3.96s3.96,1.32,3.96,3.96-1.32,3.96-3.96,3.96-3.96-1.32-3.96-3.96Zm0,8.64c0-2.64,1.32-3.96,3.96-3.96s3.96,1.32,3.96,3.96-1.32,3.96-3.96,3.96-3.96-1.32-3.96-3.96Z"/><path class="cls-1" d="M285.12,3.96c0-2.64,1.32-3.96,3.96-3.96s3.96,1.32,3.96,3.96-1.32,3.96-3.96,3.96-3.96-1.32-3.96-3.96Zm0,8.64c0-2.64,1.32-3.96,3.96-3.96s3.96,1.32,3.96,3.96-1.32,3.96-3.96,3.96-3.96-1.32-3.96-3.96Zm8.64-8.64c0-2.64,1.32-3.96,3.96-3.96s3.96,1.32,3.96,3.96-1.32,3.96-3.96,3.96-3.96-1.32-3.96-3.96Zm0,8.64c0-2.64,1.32-3.96,3.96-3.96s3.96,1.32,3.96,3.96-1.32,3.96-3.96,3.96-3.96-1.32-3.96-3.96Zm8.64-8.64c0-2.64,1.32-3.96,3.96-3.96s3.96,1.32,3.96,3.96-1.32,3.96-3.96,3.96-3.96-1.32-3.96-3.96Zm0,8.64c0-2.64,1.32-3.96,3.96-3.96s3.96,1.32,3.96,3.96-1.32,3.96-3.96,3.96-3.96-1.32-3.96-3.96Zm0,8.64c0-2.64,1.32-3.96,3.96-3.96s3.96,1.32,3.96,3.96-1.32,3.96-3.96,3.96-3.96-1.32-3.96-3.96Zm0,8.64c0-2.64,1.32-3.96,3.96-3.96s3.96,1.32,3.96,3.96-1.32,3.96-3.96,3.96-3.96-1.32-3.96-3.96Zm0,8.64c0-2.64,1.32-3.96,3.96-3.96s3.96,1.32,3.96,3.96-1.32,3.96-3.96,3.96-3.96-1.32-3.96-3.96Zm0,8.64c0-2.64,1.32-3.96,3.96-3.96s3.96,1.32,3.96,3.96-1.32,3.96-3.96,3.96-3.96-1.32-3.96-3.96Zm0,8.64c0-2.64,1.32-3.96,3.96-3.96s3.96,1.32,3.96,3.96-1.32,3.96-3.96,3.96-3.96-1.32-3.96-3.96Zm0,8.64c0-2.64,1.32-3.96,3.96-3.96s3.96,1.32,3.96,3.96-1.32,3.96-3.96,3.96-3.96-1.32-3.96-3.96Zm0,8.64c0-2.64,1.32-3.96,3.96-3.96s3.96,1.32,3.96,3.96-1.32,3.96-3.96,3.96-3.96-1.32-3.96-3.96Zm0,8.64c0-2.64,1.32-3.96,3.96-3.96s3.96,1.32,3.96,3.96-1.32,3.96-3.96,3.96-3.96-1.32-3.96-3.96Zm0,8.64c0-2.64,1.32-3.96,3.96-3.96s3.96,1.32,3.96,3.96-1.32,3.96-3.96,3.96-3.96-1.32-3.96-3.96ZM311.04,3.96c0-2.64,1.32-3.96,3.96-3.96s3.96,1.32,3.96,3.96-1.32,3.96-3.96,3.96-3.96-1.32-3.96-3.96Zm0,8.64c0-2.64,1.32-3.96,3.96-3.96s3.96,1.32,3.96,3.96-1.32,3.96-3.96,3.96-3.96-1.32-3.96-3.96Zm0,8.64c0-2.64,1.32-3.96,3.96-3.96s3.96,1.32,3.96,3.96-1.32,3.96-3.96,3.96-3.96-1.32-3.96-3.96Zm0,8.64c0-2.64,1.32-3.96,3.96-3.96s3.96,1.32,3.96,3.96-1.32,3.96-3.96,3.96-3.96-1.32-3.96-3.96Zm0,8.64c0-2.64,1.32-3.96,3.96-3.96s3.96,1.32,3.96,3.96-1.32,3.96-3.96,3.96-3.96-1.32-3.96-3.96Zm0,8.64c0-2.64,1.32-3.96,3.96-3.96s3.96,1.32,3.96,3.96-1.32,3.96-3.96,3.96-3.96-1.32-3.96-3.96Zm0,8.64c0-2.64,1.32-3.96,3.96-3.96s3.96,1.32,3.96,3.96-1.32,3.96-3.96,3.96-3.96-1.32-3.96-3.96Zm0,8.64c0-2.64,1.32-3.96,3.96-3.96s3.96,1.32,3.96,3.96-1.32,3.96-3.96,3.96-3.96-1.32-3.96-3.96Zm0,8.64c0-2.64,1.32-3.96,3.96-3.96s3.96,1.32,3.96,3.96-1.32,3.96-3.96,3.96-3.96-1.32-3.96-3.96Zm0,8.64c0-2.64,1.32-3.96,3.96-3.96s3.96,1.32,3.96,3.96-1.32,3.96-3.96,3.96-3.96-1.32-3.96-3.96Zm0,8.64c0-2.64,1.32-3.96,3.96-3.96s3.96,1.32,3.96,3.96-1.32,3.96-3.96,3.96-3.96-1.32-3.96-3.96ZM319.68,3.96c0-2.64,1.32-3.96,3.96-3.96s3.96,1.32,3.96,3.96-1.32,3.96-3.96,3.96-3.96-1.32-3.96-3.96Zm0,8.64c0-2.64,1.32-3.96,3.96-3.96s3.96,1.32,3.96,3.96-1.32,3.96-3.96,3.96-3.96-1.32-3.96-3.96Zm8.64-8.64c0-2.64,1.32-3.96,3.96-3.96s3.96,1.32,3.96,3.96-1.32,3.96-3.96,3.96-3.96-1.32-3.96-3.96Zm0,8.64c0-2.64,1.32-3.96,3.96-3.96s3.96,1.32,3.96,3.96-1.32,3.96-3.96,3.96-3.96-1.32-3.96-3.96Z"/><path class="cls-1" d="M347.27,3.96c0-2.64,1.32-3.96,3.96-3.96s3.96,1.32,3.96,3.96-1.32,3.96-3.96,3.96-3.96-1.32-3.96-3.96Zm0,8.64c0-2.64,1.32-3.96,3.96-3.96s3.96,1.32,3.96,3.96-1.32,3.96-3.96,3.96-3.96-1.32-3.96-3.96Zm0,8.64c0-2.64,1.32-3.96,3.96-3.96s3.96,1.32,3.96,3.96-1.32,3.96-3.96,3.96-3.96-1.32-3.96-3.96Zm0,8.64c0-2.64,1.32-3.96,3.96-3.96s3.96,1.32,3.96,3.96-1.32,3.96-3.96,3.96-3.96-1.32-3.96-3.96Zm0,8.64c0-2.64,1.32-3.96,3.96-3.96s3.96,1.32,3.96,3.96-1.32,3.96-3.96,3.96-3.96-1.32-3.96-3.96Zm0,8.64c0-2.64,1.32-3.96,3.96-3.96s3.96,1.32,3.96,3.96-1.32,3.96-3.96,3.96-3.96-1.32-3.96-3.96Zm0,8.64c0-2.64,1.32-3.96,3.96-3.96s3.96,1.32,3.96,3.96-1.32,3.96-3.96,3.96-3.96-1.32-3.96-3.96Zm0,8.64c0-2.64,1.32-3.96,3.96-3.96s3.96,1.32,3.96,3.96-1.32,3.96-3.96,3.96-3.96-1.32-3.96-3.96Zm0,8.64c0-2.64,1.32-3.96,3.96-3.96s3.96,1.32,3.96,3.96-1.32,3.96-3.96,3.96-3.96-1.32-3.96-3.96Zm0,8.64c0-2.64,1.32-3.96,3.96-3.96s3.96,1.32,3.96,3.96-1.32,3.96-3.96,3.96-3.96-1.32-3.96-3.96Zm0,8.64c0-2.64,1.32-3.96,3.96-3.96s3.96,1.32,3.96,3.96-1.32,3.96-3.96,3.96-3.96-1.32-3.96-3.96ZM355.91,3.96c0-2.64,1.32-3.96,3.96-3.96s3.96,1.32,3.96,3.96-1.32,3.96-3.96,3.96-3.96-1.32-3.96-3.96Zm0,8.64c0-2.64,1.32-3.96,3.96-3.96s3.96,1.32,3.96,3.96-1.32,3.96-3.96,3.96-3.96-1.32-3.96-3.96Zm0,8.64c0-2.64,1.32-3.96,3.96-3.96s3.96,1.32,3.96,3.96-1.32,3.96-3.96,3.96-3.96-1.32-3.96-3.96Zm0,8.64c0-2.64,1.32-3.96,3.96-3.96s3.96,1.32,3.96,3.96-1.32,3.96-3.96,3.96-3.96-1.32-3.96-3.96Zm0,8.64c0-2.64,1.32-3.96,3.96-3.96s3.96,1.32,3.96,3.96-1.32,3.96-3.96,3.96-3.96-1.32-3.96-3.96Zm0,8.64c0-2.64,1.32-3.96,3.96-3.96s3.96,1.32,3.96,3.96-1.32,3.96-3.96,3.96-3.96-1.32-3.96-3.96Zm0,8.64c0-2.64,1.32-3.96,3.96-3.96s3.96,1.32,3.96,3.96-1.32,3.96-3.96,3.96-3.96-1.32-3.96-3.96Zm0,8.64c0-2.64,1.32-3.96,3.96-3.96s3.96,1.32,3.96,3.96-1.32,3.96-3.96,3.96-3.96-1.32-3.96-3.96Zm0,8.64c0-2.64,1.32-3.96,3.96-3.96s3.96,1.32,3.96,3.96-1.32,3.96-3.96,3.96-3.96-1.32-3.96-3.96Zm0,8.64c0-2.64,1.32-3.96,3.96-3.96s3.96,1.32,3.96,3.96-1.32,3.96-3.96,3.96-3.96-1.32-3.96-3.96Zm0,8.64c0-2.64,1.32-3.96,3.96-3.96s3.96,1.32,3.96,3.96-1.32,3.96-3.96,3.96-3.96-1.32-3.96-3.96ZM364.55,3.96c0-2.64,1.32-3.96,3.96-3.96s3.96,1.32,3.96,3.96-1.32,3.96-3.96,3.96-3.96-1.32-3.96-3.96Zm0,8.64c0-2.64,1.32-3.96,3.96-3.96s3.96,1.32,3.96,3.96-1.32,3.96-3.96,3.96-3.96-1.32-3.96-3.96Zm0,34.56c0-2.64,1.32-3.96,3.96-3.96s3.96,1.32,3.96,3.96-1.32,3.96-3.96,3.96-3.96-1.32-3.96-3.96Zm0,8.64c0-2.64,1.32-3.96,3.96-3.96s3.96,1.32,3.96,3.96-1.32,3.96-3.96,3.96-3.96-1.32-3.96-3.96Zm0,25.92c0-2.64,1.32-3.96,3.96-3.96s3.96,1.32,3.96,3.96-1.32,3.96-3.96,3.96-3.96-1.32-3.96-3.96Zm0,8.64c0-2.64,1.32-3.96,3.96-3.96s3.96,1.32,3.96,3.96-1.32,3.96-3.96,3.96-3.96-1.32-3.96-3.96ZM373.19,3.96c0-2.64,1.32-3.96,3.96-3.96s3.96,1.32,3.96,3.96-1.32,3.96-3.96,3.96-3.96-1.32-3.96-3.96Zm0,8.64c0-2.64,1.32-3.96,3.96-3.96s3.96,1.32,3.96,3.96-1.32,3.96-3.96,3.96-3.96-1.32-3.96-3.96Zm0,34.56c0-2.64,1.32-3.96,3.96-3.96s3.96,1.32,3.96,3.96-1.32,3.96-3.96,3.96-3.96-1.32-3.96-3.96Zm0,8.64c0-2.64,1.32-3.96,3.96-3.96s3.96,1.32,3.96,3.96-1.32,3.96-3.96,3.96-3.96-1.32-3.96-3.96Zm0,25.92c0-2.64,1.32-3.96,3.96-3.96s3.96,1.32,3.96,3.96-1.32,3.96-3.96,3.96-3.96-1.32-3.96-3.96Zm0,8.64c0-2.64,1.32-3.96,3.96-3.96s3.96,1.32,3.96,3.96-1.32,3.96-3.96,3.96-3.96-1.32-3.96-3.96ZM381.83,3.96c0-2.64,1.32-3.96,3.96-3.96s3.96,1.32,3.96,3.96-1.32,3.96-3.96,3.96-3.96-1.32-3.96-3.96Zm0,8.64c0-2.64,1.32-3.96,3.96-3.96s3.96,1.32,3.96,3.96-1.32,3.96-3.96,3.96-3.96-1.32-3.96-3.96Zm0,34.56c0-2.64,1.32-3.96,3.96-3.96s3.96,1.32,3.96,3.96-1.32,3.96-3.96,3.96-3.96-1.32-3.96-3.96Zm0,8.64c0-2.64,1.32-3.96,3.96-3.96s3.96,1.32,3.96,3.96-1.32,3.96-3.96,3.96-3.96-1.32-3.96-3.96Zm0,25.92c0-2.64,1.32-3.96,3.96-3.96s3.96,1.32,3.96,3.96-1.32,3.96-3.96,3.96-3.96-1.32-3.96-3.96Zm0,8.64c0-2.64,1.32-3.96,3.96-3.96s3.96,1.32,3.96,3.96-1.32,3.96-3.96,3.96-3.96-1.32-3.96-3.96Z"/><path class="cls-1" d="M400.91,3.96c0-2.64,1.32-3.96,3.96-3.96s3.96,1.32,3.96,3.96-1.32,3.96-3.96,3.96-3.96-1.32-3.96-3.96Zm0,8.64c0-2.64,1.32-3.96,3.96-3.96s3.96,1.32,3.96,3.96-1.32,3.96-3.96,3.96-3.96-1.32-3.96-3.96Zm0,8.64c0-2.64,1.32-3.96,3.96-3.96s3.96,1.32,3.96,3.96-1.32,3.96-3.96,3.96-3.96-1.32-3.96-3.96Zm0,8.64c0-2.64,1.32-3.96,3.96-3.96s3.96,1.32,3.96,3.96-1.32,3.96-3.96,3.96-3.96-1.32-3.96-3.96Zm0,8.64c0-2.64,1.32-3.96,3.96-3.96s3.96,1.32,3.96,3.96-1.32,3.96-3.96,3.96-3.96-1.32-3.96-3.96Zm0,8.64c0-2.64,1.32-3.96,3.96-3.96s3.96,1.32,3.96,3.96-1.32,3.96-3.96,3.96-3.96-1.32-3.96-3.96Zm0,8.64c0-2.64,1.32-3.96,3.96-3.96s3.96,1.32,3.96,3.96-1.32,3.96-3.96,3.96-3.96-1.32-3.96-3.96Zm0,8.64c0-2.64,1.32-3.96,3.96-3.96s3.96,1.32,3.96,3.96-1.32,3.96-3.96,3.96-3.96-1.32-3.96-3.96Zm0,8.64c0-2.64,1.32-3.96,3.96-3.96s3.96,1.32,3.96,3.96-1.32,3.96-3.96,3.96-3.96-1.32-3.96-3.96Zm0,8.64c0-2.64,1.32-3.96,3.96-3.96s3.96,1.32,3.96,3.96-1.32,3.96-3.96,3.96-3.96-1.32-3.96-3.96Zm0,8.64c0-2.64,1.32-3.96,3.96-3.96s3.96,1.32,3.96,3.96-1.32,3.96-3.96,3.96-3.96-1.32-3.96-3.96ZM409.55,3.96c0-2.64,1.32-3.96,3.96-3.96s3.96,1.32,3.96,3.96-1.32,3.96-3.96,3.96-3.96-1.32-3.96-3.96Zm0,8.64c0-2.64,1.32-3.96,3.96-3.96s3.96,1.32,3.96,3.96-1.32,3.96-3.96,3.96-3.96-1.32-3.96-3.96Zm0,8.64c0-2.64,1.32-3.96,3.96-3.96s3.96,1.32,3.96,3.96-1.32,3.96-3.96,3.96-3.96-1.32-3.96-3.96Zm0,8.64c0-2.64,1.32-3.96,3.96-3.96s3.96,1.32,3.96,3.96-1.32,3.96-3.96,3.96-3.96-1.32-3.96-3.96Zm0,8.64c0-2.64,1.32-3.96,3.96-3.96s3.96,1.32,3.96,3.96-1.32,3.96-3.96,3.96-3.96-1.32-3.96-3.96Zm0,8.64c0-2.64,1.32-3.96,3.96-3.96s3.96,1.32,3.96,3.96-1.32,3.96-3.96,3.96-3.96-1.32-3.96-3.96Zm0,8.64c0-2.64,1.32-3.96,3.96-3.96s3.96,1.32,3.96,3.96-1.32,3.96-3.96,3.96-3.96-1.32-3.96-3.96Zm0,8.64c0-2.64,1.32-3.96,3.96-3.96s3.96,1.32,3.96,3.96-1.32,3.96-3.96,3.96-3.96-1.32-3.96-3.96Zm0,8.64c0-2.64,1.32-3.96,3.96-3.96s3.96,1.32,3.96,3.96-1.32,3.96-3.96,3.96-3.96-1.32-3.96-3.96Zm0,8.64c0-2.64,1.32-3.96,3.96-3.96s3.96,1.32,3.96,3.96-1.32,3.96-3.96,3.96-3.96-1.32-3.96-3.96Zm0,8.64c0-2.64,1.32-3.96,3.96-3.96s3.96,1.32,3.96,3.96-1.32,3.96-3.96,3.96-3.96-1.32-3.96-3.96Zm8.64-77.76c0-2.64,1.32-3.96,3.96-3.96s3.96,1.32,3.96,3.96-1.32,3.96-3.96,3.96-3.96-1.32-3.96-3.96Zm0,8.64c0-2.64,1.32-3.96,3.96-3.96s3.96,1.32,3.96,3.96-1.32,3.96-3.96,3.96-3.96-1.32-3.96-3.96Zm0,8.64c0-2.64,1.32-3.96,3.96-3.96s3.96,1.32,3.96,3.96-1.32,3.96-3.96,3.96-3.96-1.32-3.96-3.96Zm8.64-8.64c0-2.64,1.32-3.96,3.96-3.96s3.96,1.32,3.96,3.96-1.32,3.96-3.96,3.96-3.96-1.32-3.96-3.96Zm0,8.64c0-2.64,1.32-3.96,3.96-3.96s3.96,1.32,3.96,3.96-1.32,3.96-3.96,3.96-3.96-1.32-3.96-3.96Zm0,8.64c0-2.64,1.32-3.96,3.96-3.96s3.96,1.32,3.96,3.96-1.32,3.96-3.96,3.96-3.96-1.32-3.96-3.96Zm8.64-17.28c0-2.64,1.32-3.96,3.96-3.96s3.96,1.32,3.96,3.96-1.32,3.96-3.96,3.96-3.96-1.32-3.96-3.96Zm0,8.64c0-2.64,1.32-3.96,3.96-3.96s3.96,1.32,3.96,3.96-1.32,3.96-3.96,3.96-3.96-1.32-3.96-3.96Zm0,8.64c0-2.64,1.32-3.96,3.96-3.96s3.96,1.32,3.96,3.96-1.32,3.96-3.96,3.96-3.96-1.32-3.96-3.96Zm8.64-25.92c0-2.64,1.32-3.96,3.96-3.96s3.96,1.32,3.96,3.96-1.32,3.96-3.96,3.96-3.96-1.32-3.96-3.96Zm0,8.64c0-2.64,1.32-3.96,3.96-3.96s3.96,1.32,3.96,3.96-1.32,3.96-3.96,3.96-3.96-1.32-3.96-3.96Zm0,8.64c0-2.64,1.32-3.96,3.96-3.96s3.96,1.32,3.96,3.96-1.32,3.96-3.96,3.96-3.96-1.32-3.96-3.96Zm8.4-25.92c0-2.64,1.32-3.96,3.96-3.96s3.96,1.32,3.96,3.96-1.32,3.96-3.96,3.96-3.96-1.32-3.96-3.96Zm0,8.64c0-2.64,1.32-3.96,3.96-3.96s3.96,1.32,3.96,3.96-1.32,3.96-3.96,3.96-3.96-1.32-3.96-3.96Zm0,8.64c0-2.64,1.32-3.96,3.96-3.96s3.96,1.32,3.96,3.96-1.32,3.96-3.96,3.96-3.96-1.32-3.96-3.96Zm0,8.64c0-2.64,1.32-3.96,3.96-3.96s3.96,1.32,3.96,3.96-1.32,3.96-3.96,3.96-3.96-1.32-3.96-3.96Zm0,8.64c0-2.64,1.32-3.96,3.96-3.96s3.96,1.32,3.96,3.96-1.32,3.96-3.96,3.96-3.96-1.32-3.96-3.96Zm0,8.64c0-2.64,1.32-3.96,3.96-3.96s3.96,1.32,3.96,3.96-1.32,3.96-3.96,3.96-3.96-1.32-3.96-3.96Zm0,8.64c0-2.64,1.32-3.96,3.96-3.96s3.96,1.32,3.96,3.96-1.32,3.96-3.96,3.96-3.96-1.32-3.96-3.96Zm0,8.64c0-2.64,1.32-3.96,3.96-3.96s3.96,1.32,3.96,3.96-1.32,3.96-3.96,3.96-3.96-1.32-3.96-3.96Zm0,8.64c0-2.64,1.32-3.96,3.96-3.96s3.96,1.32,3.96,3.96-1.32,3.96-3.96,3.96-3.96-1.32-3.96-3.96Zm0,8.64c0-2.64,1.32-3.96,3.96-3.96s3.96,1.32,3.96,3.96-1.32,3.96-3.96,3.96-3.96-1.32-3.96-3.96Zm0,8.64c0-2.64,1.32-3.96,3.96-3.96s3.96,1.32,3.96,3.96-1.32,3.96-3.96,3.96-3.96-1.32-3.96-3.96ZM460.91,3.96c0-2.64,1.32-3.96,3.96-3.96s3.96,1.32,3.96,3.96-1.32,3.96-3.96,3.96-3.96-1.32-3.96-3.96Zm0,8.64c0-2.64,1.32-3.96,3.96-3.96s3.96,1.32,3.96,3.96-1.32,3.96-3.96,3.96-3.96-1.32-3.96-3.96Zm0,8.64c0-2.64,1.32-3.96,3.96-3.96s3.96,1.32,3.96,3.96-1.32,3.96-3.96,3.96-3.96-1.32-3.96-3.96Zm0,8.64c0-2.64,1.32-3.96,3.96-3.96s3.96,1.32,3.96,3.96-1.32,3.96-3.96,3.96-3.96-1.32-3.96-3.96Zm0,8.64c0-2.64,1.32-3.96,3.96-3.96s3.96,1.32,3.96,3.96-1.32,3.96-3.96,3.96-3.96-1.32-3.96-3.96Zm0,8.64c0-2.64,1.32-3.96,3.96-3.96s3.96,1.32,3.96,3.96-1.32,3.96-3.96,3.96-3.96-1.32-3.96-3.96Zm0,8.64c0-2.64,1.32-3.96,3.96-3.96s3.96,1.32,3.96,3.96-1.32,3.96-3.96,3.96-3.96-1.32-3.96-3.96Zm0,8.64c0-2.64,1.32-3.96,3.96-3.96s3.96,1.32,3.96,3.96-1.32,3.96-3.96,3.96-3.96-1.32-3.96-3.96Zm0,8.64c0-2.64,1.32-3.96,3.96-3.96s3.96,1.32,3.96,3.96-1.32,3.96-3.96,3.96-3.96-1.32-3.96-3.96Zm0,8.64c0-2.64,1.32-3.96,3.96-3.96s3.96,1.32,3.96,3.96-1.32,3.96-3.96,3.96-3.96-1.32-3.96-3.96Zm0,8.64c0-2.64,1.32-3.96,3.96-3.96s3.96,1.32,3.96,3.96-1.32,3.96-3.96,3.96-3.96-1.32-3.96-3.96Z"/><path class="cls-1" d="M479.99,3.96c0-2.64,1.32-3.96,3.96-3.96s3.96,1.32,3.96,3.96-1.32,3.96-3.96,3.96-3.96-1.32-3.96-3.96Zm0,8.64c0-2.64,1.32-3.96,3.96-3.96s3.96,1.32,3.96,3.96-1.32,3.96-3.96,3.96-3.96-1.32-3.96-3.96Zm0,8.64c0-2.64,1.32-3.96,3.96-3.96s3.96,1.32,3.96,3.96-1.32,3.96-3.96,3.96-3.96-1.32-3.96-3.96Zm0,8.64c0-2.64,1.32-3.96,3.96-3.96s3.96,1.32,3.96,3.96-1.32,3.96-3.96,3.96-3.96-1.32-3.96-3.96Zm0,8.64c0-2.64,1.32-3.96,3.96-3.96s3.96,1.32,3.96,3.96-1.32,3.96-3.96,3.96-3.96-1.32-3.96-3.96Zm0,8.64c0-2.64,1.32-3.96,3.96-3.96s3.96,1.32,3.96,3.96-1.32,3.96-3.96,3.96-3.96-1.32-3.96-3.96Zm0,8.64c0-2.64,1.32-3.96,3.96-3.96s3.96,1.32,3.96,3.96-1.32,3.96-3.96,3.96-3.96-1.32-3.96-3.96Zm0,25.92c0-2.64,1.32-3.96,3.96-3.96s3.96,1.32,3.96,3.96-1.32,3.96-3.96,3.96-3.96-1.32-3.96-3.96Zm0,8.64c0-2.64,1.32-3.96,3.96-3.96s3.96,1.32,3.96,3.96-1.32,3.96-3.96,3.96-3.96-1.32-3.96-3.96ZM488.63,3.96c0-2.64,1.32-3.96,3.96-3.96s3.96,1.32,3.96,3.96-1.32,3.96-3.96,3.96-3.96-1.32-3.96-3.96Zm0,8.64c0-2.64,1.32-3.96,3.96-3.96s3.96,1.32,3.96,3.96-1.32,3.96-3.96,3.96-3.96-1.32-3.96-3.96Zm0,8.64c0-2.64,1.32-3.96,3.96-3.96s3.96,1.32,3.96,3.96-1.32,3.96-3.96,3.96-3.96-1.32-3.96-3.96Zm0,8.64c0-2.64,1.32-3.96,3.96-3.96s3.96,1.32,3.96,3.96-1.32,3.96-3.96,3.96-3.96-1.32-3.96-3.96Zm0,8.64c0-2.64,1.32-3.96,3.96-3.96s3.96,1.32,3.96,3.96-1.32,3.96-3.96,3.96-3.96-1.32-3.96-3.96Zm0,8.64c0-2.64,1.32-3.96,3.96-3.96s3.96,1.32,3.96,3.96-1.32,3.96-3.96,3.96-3.96-1.32-3.96-3.96Zm0,8.64c0-2.64,1.32-3.96,3.96-3.96s3.96,1.32,3.96,3.96-1.32,3.96-3.96,3.96-3.96-1.32-3.96-3.96Zm0,8.64c0-2.64,1.32-3.96,3.96-3.96s3.96,1.32,3.96,3.96-1.32,3.96-3.96,3.96-3.96-1.32-3.96-3.96Zm0,17.28c0-2.64,1.32-3.96,3.96-3.96s3.96,1.32,3.96,3.96-1.32,3.96-3.96,3.96-3.96-1.32-3.96-3.96Zm0,8.64c0-2.64,1.32-3.96,3.96-3.96s3.96,1.32,3.96,3.96-1.32,3.96-3.96,3.96-3.96-1.32-3.96-3.96Zm8.64-34.56c0-2.64,1.32-3.96,3.96-3.96s3.96,1.32,3.96,3.96-1.32,3.96-3.96,3.96-3.96-1.32-3.96-3.96Zm0,8.64c0-2.64,1.32-3.96,3.96-3.96s3.96,1.32,3.96,3.96-1.32,3.96-3.96,3.96-3.96-1.32-3.96-3.96Zm0,17.28c0-2.64,1.32-3.96,3.96-3.96s3.96,1.32,3.96,3.96-1.32,3.96-3.96,3.96-3.96-1.32-3.96-3.96Zm0,8.64c0-2.64,1.32-3.96,3.96-3.96s3.96,1.32,3.96,3.96-1.32,3.96-3.96,3.96-3.96-1.32-3.96-3.96Zm8.64-34.56c0-2.64,1.32-3.96,3.96-3.96s3.96,1.32,3.96,3.96-1.32,3.96-3.96,3.96-3.96-1.32-3.96-3.96Zm0,8.64c0-2.64,1.32-3.96,3.96-3.96s3.96,1.32,3.96,3.96-1.32,3.96-3.96,3.96-3.96-1.32-3.96-3.96Zm0,17.28c0-2.64,1.32-3.96,3.96-3.96s3.96,1.32,3.96,3.96-1.32,3.96-3.96,3.96-3.96-1.32-3.96-3.96Zm0,8.64c0-2.64,1.32-3.96,3.96-3.96s3.96,1.32,3.96,3.96-1.32,3.96-3.96,3.96-3.96-1.32-3.96-3.96Zm8.64-86.4c0-2.64,1.32-3.96,3.96-3.96s3.96,1.32,3.96,3.96-1.32,3.96-3.96,3.96-3.96-1.32-3.96-3.96Zm0,8.64c0-2.64,1.32-3.96,3.96-3.96s3.96,1.32,3.96,3.96-1.32,3.96-3.96,3.96-3.96-1.32-3.96-3.96Zm0,8.64c0-2.64,1.32-3.96,3.96-3.96s3.96,1.32,3.96,3.96-1.32,3.96-3.96,3.96-3.96-1.32-3.96-3.96Zm0,8.64c0-2.64,1.32-3.96,3.96-3.96s3.96,1.32,3.96,3.96-1.32,3.96-3.96,3.96-3.96-1.32-3.96-3.96Zm0,8.64c0-2.64,1.32-3.96,3.96-3.96s3.96,1.32,3.96,3.96-1.32,3.96-3.96,3.96-3.96-1.32-3.96-3.96Zm0,8.64c0-2.64,1.32-3.96,3.96-3.96s3.96,1.32,3.96,3.96-1.32,3.96-3.96,3.96-3.96-1.32-3.96-3.96Zm0,8.64c0-2.64,1.32-3.96,3.96-3.96s3.96,1.32,3.96,3.96-1.32,3.96-3.96,3.96-3.96-1.32-3.96-3.96Zm0,8.64c0-2.64,1.32-3.96,3.96-3.96s3.96,1.32,3.96,3.96-1.32,3.96-3.96,3.96-3.96-1.32-3.96-3.96Zm0,8.64c0-2.64,1.32-3.96,3.96-3.96s3.96,1.32,3.96,3.96-1.32,3.96-3.96,3.96-3.96-1.32-3.96-3.96Zm0,8.64c0-2.64,1.32-3.96,3.96-3.96s3.96,1.32,3.96,3.96-1.32,3.96-3.96,3.96-3.96-1.32-3.96-3.96Zm0,8.64c0-2.64,1.32-3.96,3.96-3.96s3.96,1.32,3.96,3.96-1.32,3.96-3.96,3.96-3.96-1.32-3.96-3.96Zm8.64-86.4c0-2.64,1.32-3.96,3.96-3.96s3.96,1.32,3.96,3.96-1.32,3.96-3.96,3.96-3.96-1.32-3.96-3.96Zm0,8.64c0-2.64,1.32-3.96,3.96-3.96s3.96,1.32,3.96,3.96-1.32,3.96-3.96,3.96-3.96-1.32-3.96-3.96Zm0,8.64c0-2.64,1.32-3.96,3.96-3.96s3.96,1.32,3.96,3.96-1.32,3.96-3.96,3.96-3.96-1.32-3.96-3.96Zm0,8.64c0-2.64,1.32-3.96,3.96-3.96s3.96,1.32,3.96,3.96-1.32,3.96-3.96,3.96-3.96-1.32-3.96-3.96Zm0,8.64c0-2.64,1.32-3.96,3.96-3.96s3.96,1.32,3.96,3.96-1.32,3.96-3.96,3.96-3.96-1.32-3.96-3.96Zm0,8.64c0-2.64,1.32-3.96,3.96-3.96s3.96,1.32,3.96,3.96-1.32,3.96-3.96,3.96-3.96-1.32-3.96-3.96Zm0,8.64c0-2.64,1.32-3.96,3.96-3.96s3.96,1.32,3.96,3.96-1.32,3.96-3.96,3.96-3.96-1.32-3.96-3.96Zm0,8.64c0-2.64,1.32-3.96,3.96-3.96s3.96,1.32,3.96,3.96-1.32,3.96-3.96,3.96-3.96-1.32-3.96-3.96Zm0,8.64c0-2.64,1.32-3.96,3.96-3.96s3.96,1.32,3.96,3.96-1.32,3.96-3.96,3.96-3.96-1.32-3.96-3.96Zm0,8.64c0-2.64,1.32-3.96,3.96-3.96s3.96,1.32,3.96,3.96-1.32,3.96-3.96,3.96-3.96-1.32-3.96-3.96Zm0,8.64c0-2.64,1.32-3.96,3.96-3.96s3.96,1.32,3.96,3.96-1.32,3.96-3.96,3.96-3.96-1.32-3.96-3.96Z"/><path class="cls-1" d="M542.15,3.96c0-2.64,1.32-3.96,3.96-3.96s3.96,1.32,3.96,3.96-1.32,3.96-3.96,3.96-3.96-1.32-3.96-3.96Zm0,8.64c0-2.64,1.32-3.96,3.96-3.96s3.96,1.32,3.96,3.96-1.32,3.96-3.96,3.96-3.96-1.32-3.96-3.96Zm0,8.64c0-2.64,1.32-3.96,3.96-3.96s3.96,1.32,3.96,3.96-1.32,3.96-3.96,3.96-3.96-1.32-3.96-3.96Zm0,8.64c0-2.64,1.32-3.96,3.96-3.96s3.96,1.32,3.96,3.96-1.32,3.96-3.96,3.96-3.96-1.32-3.96-3.96Zm0,8.64c0-2.64,1.32-3.96,3.96-3.96s3.96,1.32,3.96,3.96-1.32,3.96-3.96,3.96-3.96-1.32-3.96-3.96Zm0,8.64c0-2.64,1.32-3.96,3.96-3.96s3.96,1.32,3.96,3.96-1.32,3.96-3.96,3.96-3.96-1.32-3.96-3.96Zm0,8.64c0-2.64,1.32-3.96,3.96-3.96s3.96,1.32,3.96,3.96-1.32,3.96-3.96,3.96-3.96-1.32-3.96-3.96Zm0,8.64c0-2.64,1.32-3.96,3.96-3.96s3.96,1.32,3.96,3.96-1.32,3.96-3.96,3.96-3.96-1.32-3.96-3.96Zm0,8.64c0-2.64,1.32-3.96,3.96-3.96s3.96,1.32,3.96,3.96-1.32,3.96-3.96,3.96-3.96-1.32-3.96-3.96Zm0,8.64c0-2.64,1.32-3.96,3.96-3.96s3.96,1.32,3.96,3.96-1.32,3.96-3.96,3.96-3.96-1.32-3.96-3.96Zm0,8.64c0-2.64,1.32-3.96,3.96-3.96s3.96,1.32,3.96,3.96-1.32,3.96-3.96,3.96-3.96-1.32-3.96-3.96Zm8.64-86.4c0-2.64,1.32-3.96,3.96-3.96s3.96,1.32,3.96,3.96-1.32,3.96-3.96,3.96-3.96-1.32-3.96-3.96Zm0,8.64c0-2.64,1.32-3.96,3.96-3.96s3.96,1.32,3.96,3.96-1.32,3.96-3.96,3.96-3.96-1.32-3.96-3.96Zm0,8.64c0-2.64,1.32-3.96,3.96-3.96s3.96,1.32,3.96,3.96-1.32,3.96-3.96,3.96-3.96-1.32-3.96-3.96Zm0,8.64c0-2.64,1.32-3.96,3.96-3.96s3.96,1.32,3.96,3.96-1.32,3.96-3.96,3.96-3.96-1.32-3.96-3.96Zm0,8.64c0-2.64,1.32-3.96,3.96-3.96s3.96,1.32,3.96,3.96-1.32,3.96-3.96,3.96-3.96-1.32-3.96-3.96Zm0,8.64c0-2.64,1.32-3.96,3.96-3.96s3.96,1.32,3.96,3.96-1.32,3.96-3.96,3.96-3.96-1.32-3.96-3.96Zm0,8.64c0-2.64,1.32-3.96,3.96-3.96s3.96,1.32,3.96,3.96-1.32,3.96-3.96,3.96-3.96-1.32-3.96-3.96Zm0,8.64c0-2.64,1.32-3.96,3.96-3.96s3.96,1.32,3.96,3.96-1.32,3.96-3.96,3.96-3.96-1.32-3.96-3.96Zm0,8.64c0-2.64,1.32-3.96,3.96-3.96s3.96,1.32,3.96,3.96-1.32,3.96-3.96,3.96-3.96-1.32-3.96-3.96Zm0,8.64c0-2.64,1.32-3.96,3.96-3.96s3.96,1.32,3.96,3.96-1.32,3.96-3.96,3.96-3.96-1.32-3.96-3.96Zm0,8.64c0-2.64,1.32-3.96,3.96-3.96s3.96,1.32,3.96,3.96-1.32,3.96-3.96,3.96-3.96-1.32-3.96-3.96Zm8.64-86.4c0-2.64,1.32-3.96,3.96-3.96s3.96,1.32,3.96,3.96-1.32,3.96-3.96,3.96-3.96-1.32-3.96-3.96Zm0,8.64c0-2.64,1.32-3.96,3.96-3.96s3.96,1.32,3.96,3.96-1.32,3.96-3.96,3.96-3.96-1.32-3.96-3.96Zm0,43.2c0-2.64,1.32-3.96,3.96-3.96s3.96,1.32,3.96,3.96-1.32,3.96-3.96,3.96-3.96-1.32-3.96-3.96Zm0,8.64c0-2.64,1.32-3.96,3.96-3.96s3.96,1.32,3.96,3.96-1.32,3.96-3.96,3.96-3.96-1.32-3.96-3.96Zm8.64-60.48c0-2.64,1.32-3.96,3.96-3.96s3.96,1.32,3.96,3.96-1.32,3.96-3.96,3.96-3.96-1.32-3.96-3.96Zm0,8.64c0-2.64,1.32-3.96,3.96-3.96s3.96,1.32,3.96,3.96-1.32,3.96-3.96,3.96-3.96-1.32-3.96-3.96Zm0,43.2c0-2.64,1.32-3.96,3.96-3.96s3.96,1.32,3.96,3.96-1.32,3.96-3.96,3.96-3.96-1.32-3.96-3.96Zm0,8.64c0-2.64,1.32-3.96,3.96-3.96s3.96,1.32,3.96,3.96-1.32,3.96-3.96,3.96-3.96-1.32-3.96-3.96Zm8.64-60.48c0-2.64,1.32-3.96,3.96-3.96s3.96,1.32,3.96,3.96-1.32,3.96-3.96,3.96-3.96-1.32-3.96-3.96Zm0,8.64c0-2.64,1.32-3.96,3.96-3.96s3.96,1.32,3.96,3.96-1.32,3.96-3.96,3.96-3.96-1.32-3.96-3.96Zm0,8.64c0-2.64,1.32-3.96,3.96-3.96s3.96,1.32,3.96,3.96-1.32,3.96-3.96,3.96-3.96-1.32-3.96-3.96Zm0,8.64c0-2.64,1.32-3.96,3.96-3.96s3.96,1.32,3.96,3.96-1.32,3.96-3.96,3.96-3.96-1.32-3.96-3.96Zm0,8.64c0-2.64,1.32-3.96,3.96-3.96s3.96,1.32,3.96,3.96-1.32,3.96-3.96,3.96-3.96-1.32-3.96-3.96Zm0,8.64c0-2.64,1.32-3.96,3.96-3.96s3.96,1.32,3.96,3.96-1.32,3.96-3.96,3.96-3.96-1.32-3.96-3.96Zm0,8.64c0-2.64,1.32-3.96,3.96-3.96s3.96,1.32,3.96,3.96-1.32,3.96-3.96,3.96-3.96-1.32-3.96-3.96Zm0,8.64c0-2.64,1.32-3.96,3.96-3.96s3.96,1.32,3.96,3.96-1.32,3.96-3.96,3.96-3.96-1.32-3.96-3.96Zm8.64-51.84c0-2.64,1.32-3.96,3.96-3.96s3.96,1.32,3.96,3.96-1.32,3.96-3.96,3.96-3.96-1.32-3.96-3.96Zm0,8.64c0-2.64,1.32-3.96,3.96-3.96s3.96,1.32,3.96,3.96-1.32,3.96-3.96,3.96-3.96-1.32-3.96-3.96Zm0,8.64c0-2.64,1.32-3.96,3.96-3.96s3.96,1.32,3.96,3.96-1.32,3.96-3.96,3.96-3.96-1.32-3.96-3.96Zm0,8.64c0-2.64,1.32-3.96,3.96-3.96s3.96,1.32,3.96,3.96-1.32,3.96-3.96,3.96-3.96-1.32-3.96-3.96Zm0,8.64c0-2.64,1.32-3.96,3.96-3.96s3.96,1.32,3.96,3.96-1.32,3.96-3.96,3.96-3.96-1.32-3.96-3.96Zm0,8.64c0-2.64,1.32-3.96,3.96-3.96s3.96,1.32,3.96,3.96-1.32,3.96-3.96,3.96-3.96-1.32-3.96-3.96Z"/><path class="cls-1" d="M604.31,3.96c0-2.64,1.32-3.96,3.96-3.96s3.96,1.32,3.96,3.96-1.32,3.96-3.96,3.96-3.96-1.32-3.96-3.96Zm0,8.64c0-2.64,1.32-3.96,3.96-3.96s3.96,1.32,3.96,3.96-1.32,3.96-3.96,3.96-3.96-1.32-3.96-3.96Zm0,8.64c0-2.64,1.32-3.96,3.96-3.96s3.96,1.32,3.96,3.96-1.32,3.96-3.96,3.96-3.96-1.32-3.96-3.96Zm0,8.64c0-2.64,1.32-3.96,3.96-3.96s3.96,1.32,3.96,3.96-1.32,3.96-3.96,3.96-3.96-1.32-3.96-3.96Zm0,8.64c0-2.64,1.32-3.96,3.96-3.96s3.96,1.32,3.96,3.96-1.32,3.96-3.96,3.96-3.96-1.32-3.96-3.96Zm0,8.64c0-2.64,1.32-3.96,3.96-3.96s3.96,1.32,3.96,3.96-1.32,3.96-3.96,3.96-3.96-1.32-3.96-3.96Zm0,8.64c0-2.64,1.32-3.96,3.96-3.96s3.96,1.32,3.96,3.96-1.32,3.96-3.96,3.96-3.96-1.32-3.96-3.96Zm0,8.64c0-2.64,1.32-3.96,3.96-3.96s3.96,1.32,3.96,3.96-1.32,3.96-3.96,3.96-3.96-1.32-3.96-3.96Zm0,8.64c0-2.64,1.32-3.96,3.96-3.96s3.96,1.32,3.96,3.96-1.32,3.96-3.96,3.96-3.96-1.32-3.96-3.96Zm0,8.64c0-2.64,1.32-3.96,3.96-3.96s3.96,1.32,3.96,3.96-1.32,3.96-3.96,3.96-3.96-1.32-3.96-3.96Zm0,8.64c0-2.64,1.32-3.96,3.96-3.96s3.96,1.32,3.96,3.96-1.32,3.96-3.96,3.96-3.96-1.32-3.96-3.96Zm8.64-86.4c0-2.64,1.32-3.96,3.96-3.96s3.96,1.32,3.96,3.96-1.32,3.96-3.96,3.96-3.96-1.32-3.96-3.96Zm0,8.64c0-2.64,1.32-3.96,3.96-3.96s3.96,1.32,3.96,3.96-1.32,3.96-3.96,3.96-3.96-1.32-3.96-3.96Zm0,8.64c0-2.64,1.32-3.96,3.96-3.96s3.96,1.32,3.96,3.96-1.32,3.96-3.96,3.96-3.96-1.32-3.96-3.96Zm0,8.64c0-2.64,1.32-3.96,3.96-3.96s3.96,1.32,3.96,3.96-1.32,3.96-3.96,3.96-3.96-1.32-3.96-3.96Zm0,8.64c0-2.64,1.32-3.96,3.96-3.96s3.96,1.32,3.96,3.96-1.32,3.96-3.96,3.96-3.96-1.32-3.96-3.96Zm0,8.64c0-2.64,1.32-3.96,3.96-3.96s3.96,1.32,3.96,3.96-1.32,3.96-3.96,3.96-3.96-1.32-3.96-3.96Zm0,8.64c0-2.64,1.32-3.96,3.96-3.96s3.96,1.32,3.96,3.96-1.32,3.96-3.96,3.96-3.96-1.32-3.96-3.96Zm0,8.64c0-2.64,1.32-3.96,3.96-3.96s3.96,1.32,3.96,3.96-1.32,3.96-3.96,3.96-3.96-1.32-3.96-3.96Zm0,8.64c0-2.64,1.32-3.96,3.96-3.96s3.96,1.32,3.96,3.96-1.32,3.96-3.96,3.96-3.96-1.32-3.96-3.96Zm0,8.64c0-2.64,1.32-3.96,3.96-3.96s3.96,1.32,3.96,3.96-1.32,3.96-3.96,3.96-3.96-1.32-3.96-3.96Zm0,8.64c0-2.64,1.32-3.96,3.96-3.96s3.96,1.32,3.96,3.96-1.32,3.96-3.96,3.96-3.96-1.32-3.96-3.96Zm8.64-86.4c0-2.64,1.32-3.96,3.96-3.96s3.96,1.32,3.96,3.96-1.32,3.96-3.96,3.96-3.96-1.32-3.96-3.96Zm0,8.64c0-2.64,1.32-3.96,3.96-3.96s3.96,1.32,3.96,3.96-1.32,3.96-3.96,3.96-3.96-1.32-3.96-3.96Zm0,43.2c0-2.64,1.32-3.96,3.96-3.96s3.96,1.32,3.96,3.96-1.32,3.96-3.96,3.96-3.96-1.32-3.96-3.96Zm0,8.64c0-2.64,1.32-3.96,3.96-3.96s3.96,1.32,3.96,3.96-1.32,3.96-3.96,3.96-3.96-1.32-3.96-3.96Zm8.64-60.48c0-2.64,1.32-3.96,3.96-3.96s3.96,1.32,3.96,3.96-1.32,3.96-3.96,3.96-3.96-1.32-3.96-3.96Zm0,8.64c0-2.64,1.32-3.96,3.96-3.96s3.96,1.32,3.96,3.96-1.32,3.96-3.96,3.96-3.96-1.32-3.96-3.96Zm0,43.2c0-2.64,1.32-3.96,3.96-3.96s3.96,1.32,3.96,3.96-1.32,3.96-3.96,3.96-3.96-1.32-3.96-3.96Zm0,8.64c0-2.64,1.32-3.96,3.96-3.96s3.96,1.32,3.96,3.96-1.32,3.96-3.96,3.96-3.96-1.32-3.96-3.96Zm8.64-60.48c0-2.64,1.32-3.96,3.96-3.96s3.96,1.32,3.96,3.96-1.32,3.96-3.96,3.96-3.96-1.32-3.96-3.96Zm0,8.64c0-2.64,1.32-3.96,3.96-3.96s3.96,1.32,3.96,3.96-1.32,3.96-3.96,3.96-3.96-1.32-3.96-3.96Zm0,8.64c0-2.64,1.32-3.96,3.96-3.96s3.96,1.32,3.96,3.96-1.32,3.96-3.96,3.96-3.96-1.32-3.96-3.96Zm0,8.64c0-2.64,1.32-3.96,3.96-3.96s3.96,1.32,3.96,3.96-1.32,3.96-3.96,3.96-3.96-1.32-3.96-3.96Zm0,8.64c0-2.64,1.32-3.96,3.96-3.96s3.96,1.32,3.96,3.96-1.32,3.96-3.96,3.96-3.96-1.32-3.96-3.96Zm0,8.64c0-2.64,1.32-3.96,3.96-3.96s3.96,1.32,3.96,3.96-1.32,3.96-3.96,3.96-3.96-1.32-3.96-3.96Zm0,8.64c0-2.64,1.32-3.96,3.96-3.96s3.96,1.32,3.96,3.96-1.32,3.96-3.96,3.96-3.96-1.32-3.96-3.96Zm0,8.64c0-2.64,1.32-3.96,3.96-3.96s3.96,1.32,3.96,3.96-1.32,3.96-3.96,3.96-3.96-1.32-3.96-3.96Zm0,8.64c0-2.64,1.32-3.96,3.96-3.96s3.96,1.32,3.96,3.96-1.32,3.96-3.96,3.96-3.96-1.32-3.96-3.96Zm0,8.64c0-2.64,1.32-3.96,3.96-3.96s3.96,1.32,3.96,3.96-1.32,3.96-3.96,3.96-3.96-1.32-3.96-3.96Zm0,8.64c0-2.64,1.32-3.96,3.96-3.96s3.96,1.32,3.96,3.96-1.32,3.96-3.96,3.96-3.96-1.32-3.96-3.96Zm8.64-77.76c0-2.64,1.32-3.96,3.96-3.96s3.96,1.32,3.96,3.96-1.32,3.96-3.96,3.96-3.96-1.32-3.96-3.96Zm0,8.64c0-2.64,1.32-3.96,3.96-3.96s3.96,1.32,3.96,3.96-1.32,3.96-3.96,3.96-3.96-1.32-3.96-3.96Zm0,8.64c0-2.64,1.32-3.96,3.96-3.96s3.96,1.32,3.96,3.96-1.32,3.96-3.96,3.96-3.96-1.32-3.96-3.96Zm0,8.64c0-2.64,1.32-3.96,3.96-3.96s3.96,1.32,3.96,3.96-1.32,3.96-3.96,3.96-3.96-1.32-3.96-3.96Zm0,8.64c0-2.64,1.32-3.96,3.96-3.96s3.96,1.32,3.96,3.96-1.32,3.96-3.96,3.96-3.96-1.32-3.96-3.96Zm0,8.64c0-2.64,1.32-3.96,3.96-3.96s3.96,1.32,3.96,3.96-1.32,3.96-3.96,3.96-3.96-1.32-3.96-3.96Zm0,17.28c0-2.64,1.32-3.96,3.96-3.96s3.96,1.32,3.96,3.96-1.32,3.96-3.96,3.96-3.96-1.32-3.96-3.96Zm0,8.64c0-2.64,1.32-3.96,3.96-3.96s3.96,1.32,3.96,3.96-1.32,3.96-3.96,3.96-3.96-1.32-3.96-3.96Zm0,8.64c0-2.64,1.32-3.96,3.96-3.96s3.96,1.32,3.96,3.96-1.32,3.96-3.96,3.96-3.96-1.32-3.96-3.96Z"/><path class="cls-1" d="M666.47,12.6c0-2.64,1.32-3.96,3.96-3.96s3.96,1.32,3.96,3.96-1.32,3.96-3.96,3.96-3.96-1.32-3.96-3.96Zm0,8.64c0-2.64,1.32-3.96,3.96-3.96s3.96,1.32,3.96,3.96-1.32,3.96-3.96,3.96-3.96-1.32-3.96-3.96Zm0,8.64c0-2.64,1.32-3.96,3.96-3.96s3.96,1.32,3.96,3.96-1.32,3.96-3.96,3.96-3.96-1.32-3.96-3.96Zm0,8.64c0-2.64,1.32-3.96,3.96-3.96s3.96,1.32,3.96,3.96-1.32,3.96-3.96,3.96-3.96-1.32-3.96-3.96Zm0,8.64c0-2.64,1.32-3.96,3.96-3.96s3.96,1.32,3.96,3.96-1.32,3.96-3.96,3.96-3.96-1.32-3.96-3.96Zm0,8.64c0-2.64,1.32-3.96,3.96-3.96s3.96,1.32,3.96,3.96-1.32,3.96-3.96,3.96-3.96-1.32-3.96-3.96Zm0,8.64c0-2.64,1.32-3.96,3.96-3.96s3.96,1.32,3.96,3.96-1.32,3.96-3.96,3.96-3.96-1.32-3.96-3.96Zm0,8.64c0-2.64,1.32-3.96,3.96-3.96s3.96,1.32,3.96,3.96-1.32,3.96-3.96,3.96-3.96-1.32-3.96-3.96Zm0,8.64c0-2.64,1.32-3.96,3.96-3.96s3.96,1.32,3.96,3.96-1.32,3.96-3.96,3.96-3.96-1.32-3.96-3.96Zm8.64-77.76c0-2.64,1.32-3.96,3.96-3.96s3.96,1.32,3.96,3.96-1.32,3.96-3.96,3.96-3.96-1.32-3.96-3.96Zm0,8.64c0-2.64,1.32-3.96,3.96-3.96s3.96,1.32,3.96,3.96-1.32,3.96-3.96,3.96-3.96-1.32-3.96-3.96Zm0,8.64c0-2.64,1.32-3.96,3.96-3.96s3.96,1.32,3.96,3.96-1.32,3.96-3.96,3.96-3.96-1.32-3.96-3.96Zm0,8.64c0-2.64,1.32-3.96,3.96-3.96s3.96,1.32,3.96,3.96-1.32,3.96-3.96,3.96-3.96-1.32-3.96-3.96Zm0,8.64c0-2.64,1.32-3.96,3.96-3.96s3.96,1.32,3.96,3.96-1.32,3.96-3.96,3.96-3.96-1.32-3.96-3.96Zm0,8.64c0-2.64,1.32-3.96,3.96-3.96s3.96,1.32,3.96,3.96-1.32,3.96-3.96,3.96-3.96-1.32-3.96-3.96Zm0,8.64c0-2.64,1.32-3.96,3.96-3.96s3.96,1.32,3.96,3.96-1.32,3.96-3.96,3.96-3.96-1.32-3.96-3.96Zm0,8.64c0-2.64,1.32-3.96,3.96-3.96s3.96,1.32,3.96,3.96-1.32,3.96-3.96,3.96-3.96-1.32-3.96-3.96Zm0,8.64c0-2.64,1.32-3.96,3.96-3.96s3.96,1.32,3.96,3.96-1.32,3.96-3.96,3.96-3.96-1.32-3.96-3.96Zm0,8.64c0-2.64,1.32-3.96,3.96-3.96s3.96,1.32,3.96,3.96-1.32,3.96-3.96,3.96-3.96-1.32-3.96-3.96Zm0,8.64c0-2.64,1.32-3.96,3.96-3.96s3.96,1.32,3.96,3.96-1.32,3.96-3.96,3.96-3.96-1.32-3.96-3.96Zm8.64-86.4c0-2.64,1.32-3.96,3.96-3.96s3.96,1.32,3.96,3.96-1.32,3.96-3.96,3.96-3.96-1.32-3.96-3.96Zm0,8.64c0-2.64,1.32-3.96,3.96-3.96s3.96,1.32,3.96,3.96-1.32,3.96-3.96,3.96-3.96-1.32-3.96-3.96Zm0,69.12c0-2.64,1.32-3.96,3.96-3.96s3.96,1.32,3.96,3.96-1.32,3.96-3.96,3.96-3.96-1.32-3.96-3.96Zm0,8.64c0-2.64,1.32-3.96,3.96-3.96s3.96,1.32,3.96,3.96-1.32,3.96-3.96,3.96-3.96-1.32-3.96-3.96Zm8.64-86.4c0-2.64,1.32-3.96,3.96-3.96s3.96,1.32,3.96,3.96-1.32,3.96-3.96,3.96-3.96-1.32-3.96-3.96Zm0,8.64c0-2.64,1.32-3.96,3.96-3.96s3.96,1.32,3.96,3.96-1.32,3.96-3.96,3.96-3.96-1.32-3.96-3.96Zm0,69.12c0-2.64,1.32-3.96,3.96-3.96s3.96,1.32,3.96,3.96-1.32,3.96-3.96,3.96-3.96-1.32-3.96-3.96Zm0,8.64c0-2.64,1.32-3.96,3.96-3.96s3.96,1.32,3.96,3.96-1.32,3.96-3.96,3.96-3.96-1.32-3.96-3.96Zm8.64-86.4c0-2.64,1.32-3.96,3.96-3.96s3.96,1.32,3.96,3.96-1.32,3.96-3.96,3.96-3.96-1.32-3.96-3.96Zm0,8.64c0-2.64,1.32-3.96,3.96-3.96s3.96,1.32,3.96,3.96-1.32,3.96-3.96,3.96-3.96-1.32-3.96-3.96Zm0,8.64c0-2.64,1.32-3.96,3.96-3.96s3.96,1.32,3.96,3.96-1.32,3.96-3.96,3.96-3.96-1.32-3.96-3.96Zm0,8.64c0-2.64,1.32-3.96,3.96-3.96s3.96,1.32,3.96,3.96-1.32,3.96-3.96,3.96-3.96-1.32-3.96-3.96Zm0,8.64c0-2.64,1.32-3.96,3.96-3.96s3.96,1.32,3.96,3.96-1.32,3.96-3.96,3.96-3.96-1.32-3.96-3.96Zm0,8.64c0-2.64,1.32-3.96,3.96-3.96s3.96,1.32,3.96,3.96-1.32,3.96-3.96,3.96-3.96-1.32-3.96-3.96Zm0,8.64c0-2.64,1.32-3.96,3.96-3.96s3.96,1.32,3.96,3.96-1.32,3.96-3.96,3.96-3.96-1.32-3.96-3.96Zm0,8.64c0-2.64,1.32-3.96,3.96-3.96s3.96,1.32,3.96,3.96-1.32,3.96-3.96,3.96-3.96-1.32-3.96-3.96Zm0,8.64c0-2.64,1.32-3.96,3.96-3.96s3.96,1.32,3.96,3.96-1.32,3.96-3.96,3.96-3.96-1.32-3.96-3.96Zm0,8.64c0-2.64,1.32-3.96,3.96-3.96s3.96,1.32,3.96,3.96-1.32,3.96-3.96,3.96-3.96-1.32-3.96-3.96Zm0,8.64c0-2.64,1.32-3.96,3.96-3.96s3.96,1.32,3.96,3.96-1.32,3.96-3.96,3.96-3.96-1.32-3.96-3.96Zm8.64-77.76c0-2.64,1.32-3.96,3.96-3.96s3.96,1.32,3.96,3.96-1.32,3.96-3.96,3.96-3.96-1.32-3.96-3.96Zm0,8.64c0-2.64,1.32-3.96,3.96-3.96s3.96,1.32,3.96,3.96-1.32,3.96-3.96,3.96-3.96-1.32-3.96-3.96Zm0,8.64c0-2.64,1.32-3.96,3.96-3.96s3.96,1.32,3.96,3.96-1.32,3.96-3.96,3.96-3.96-1.32-3.96-3.96Zm0,8.64c0-2.64,1.32-3.96,3.96-3.96s3.96,1.32,3.96,3.96-1.32,3.96-3.96,3.96-3.96-1.32-3.96-3.96Zm0,8.64c0-2.64,1.32-3.96,3.96-3.96s3.96,1.32,3.96,3.96-1.32,3.96-3.96,3.96-3.96-1.32-3.96-3.96Zm0,8.64c0-2.64,1.32-3.96,3.96-3.96s3.96,1.32,3.96,3.96-1.32,3.96-3.96,3.96-3.96-1.32-3.96-3.96Zm0,8.64c0-2.64,1.32-3.96,3.96-3.96s3.96,1.32,3.96,3.96-1.32,3.96-3.96,3.96-3.96-1.32-3.96-3.96Zm0,8.64c0-2.64,1.32-3.96,3.96-3.96s3.96,1.32,3.96,3.96-1.32,3.96-3.96,3.96-3.96-1.32-3.96-3.96Zm0,8.64c0-2.64,1.32-3.96,3.96-3.96s3.96,1.32,3.96,3.96-1.32,3.96-3.96,3.96-3.96-1.32-3.96-3.96Z"/><path class="cls-1" d="M728.63,3.96c0-2.64,1.32-3.96,3.96-3.96s3.96,1.32,3.96,3.96-1.32,3.96-3.96,3.96-3.96-1.32-3.96-3.96Zm0,8.64c0-2.64,1.32-3.96,3.96-3.96s3.96,1.32,3.96,3.96-1.32,3.96-3.96,3.96-3.96-1.32-3.96-3.96Zm0,8.64c0-2.64,1.32-3.96,3.96-3.96s3.96,1.32,3.96,3.96-1.32,3.96-3.96,3.96-3.96-1.32-3.96-3.96Zm0,8.64c0-2.64,1.32-3.96,3.96-3.96s3.96,1.32,3.96,3.96-1.32,3.96-3.96,3.96-3.96-1.32-3.96-3.96Zm0,8.64c0-2.64,1.32-3.96,3.96-3.96s3.96,1.32,3.96,3.96-1.32,3.96-3.96,3.96-3.96-1.32-3.96-3.96Zm0,8.64c0-2.64,1.32-3.96,3.96-3.96s3.96,1.32,3.96,3.96-1.32,3.96-3.96,3.96-3.96-1.32-3.96-3.96Zm0,8.64c0-2.64,1.32-3.96,3.96-3.96s3.96,1.32,3.96,3.96-1.32,3.96-3.96,3.96-3.96-1.32-3.96-3.96Zm0,8.64c0-2.64,1.32-3.96,3.96-3.96s3.96,1.32,3.96,3.96-1.32,3.96-3.96,3.96-3.96-1.32-3.96-3.96Zm0,8.64c0-2.64,1.32-3.96,3.96-3.96s3.96,1.32,3.96,3.96-1.32,3.96-3.96,3.96-3.96-1.32-3.96-3.96Zm0,8.64c0-2.64,1.32-3.96,3.96-3.96s3.96,1.32,3.96,3.96-1.32,3.96-3.96,3.96-3.96-1.32-3.96-3.96Zm0,8.64c0-2.64,1.32-3.96,3.96-3.96s3.96,1.32,3.96,3.96-1.32,3.96-3.96,3.96-3.96-1.32-3.96-3.96Zm8.64-86.4c0-2.64,1.32-3.96,3.96-3.96s3.96,1.32,3.96,3.96-1.32,3.96-3.96,3.96-3.96-1.32-3.96-3.96Zm0,8.64c0-2.64,1.32-3.96,3.96-3.96s3.96,1.32,3.96,3.96-1.32,3.96-3.96,3.96-3.96-1.32-3.96-3.96Zm0,8.64c0-2.64,1.32-3.96,3.96-3.96s3.96,1.32,3.96,3.96-1.32,3.96-3.96,3.96-3.96-1.32-3.96-3.96Zm0,8.64c0-2.64,1.32-3.96,3.96-3.96s3.96,1.32,3.96,3.96-1.32,3.96-3.96,3.96-3.96-1.32-3.96-3.96Zm0,8.64c0-2.64,1.32-3.96,3.96-3.96s3.96,1.32,3.96,3.96-1.32,3.96-3.96,3.96-3.96-1.32-3.96-3.96Zm0,8.64c0-2.64,1.32-3.96,3.96-3.96s3.96,1.32,3.96,3.96-1.32,3.96-3.96,3.96-3.96-1.32-3.96-3.96Zm0,8.64c0-2.64,1.32-3.96,3.96-3.96s3.96,1.32,3.96,3.96-1.32,3.96-3.96,3.96-3.96-1.32-3.96-3.96Zm0,8.64c0-2.64,1.32-3.96,3.96-3.96s3.96,1.32,3.96,3.96-1.32,3.96-3.96,3.96-3.96-1.32-3.96-3.96Zm0,8.64c0-2.64,1.32-3.96,3.96-3.96s3.96,1.32,3.96,3.96-1.32,3.96-3.96,3.96-3.96-1.32-3.96-3.96Zm0,8.64c0-2.64,1.32-3.96,3.96-3.96s3.96,1.32,3.96,3.96-1.32,3.96-3.96,3.96-3.96-1.32-3.96-3.96Zm0,8.64c0-2.64,1.32-3.96,3.96-3.96s3.96,1.32,3.96,3.96-1.32,3.96-3.96,3.96-3.96-1.32-3.96-3.96Zm8.64-86.4c0-2.64,1.32-3.96,3.96-3.96s3.96,1.32,3.96,3.96-1.32,3.96-3.96,3.96-3.96-1.32-3.96-3.96Zm0,8.64c0-2.64,1.32-3.96,3.96-3.96s3.96,1.32,3.96,3.96-1.32,3.96-3.96,3.96-3.96-1.32-3.96-3.96Zm0,34.56c0-2.64,1.32-3.96,3.96-3.96s3.96,1.32,3.96,3.96-1.32,3.96-3.96,3.96-3.96-1.32-3.96-3.96Zm0,8.64c0-2.64,1.32-3.96,3.96-3.96s3.96,1.32,3.96,3.96-1.32,3.96-3.96,3.96-3.96-1.32-3.96-3.96Zm8.64-51.84c0-2.64,1.32-3.96,3.96-3.96s3.96,1.32,3.96,3.96-1.32,3.96-3.96,3.96-3.96-1.32-3.96-3.96Zm0,8.64c0-2.64,1.32-3.96,3.96-3.96s3.96,1.32,3.96,3.96-1.32,3.96-3.96,3.96-3.96-1.32-3.96-3.96Zm0,34.56c0-2.64,1.32-3.96,3.96-3.96s3.96,1.32,3.96,3.96-1.32,3.96-3.96,3.96-3.96-1.32-3.96-3.96Zm0,8.64c0-2.64,1.32-3.96,3.96-3.96s3.96,1.32,3.96,3.96-1.32,3.96-3.96,3.96-3.96-1.32-3.96-3.96Zm8.64-51.84c0-2.64,1.32-3.96,3.96-3.96s3.96,1.32,3.96,3.96-1.32,3.96-3.96,3.96-3.96-1.32-3.96-3.96Zm0,8.64c0-2.64,1.32-3.96,3.96-3.96s3.96,1.32,3.96,3.96-1.32,3.96-3.96,3.96-3.96-1.32-3.96-3.96Zm0,34.56c0-2.64,1.32-3.96,3.96-3.96s3.96,1.32,3.96,3.96-1.32,3.96-3.96,3.96-3.96-1.32-3.96-3.96Zm0,8.64c0-2.64,1.32-3.96,3.96-3.96s3.96,1.32,3.96,3.96-1.32,3.96-3.96,3.96-3.96-1.32-3.96-3.96Zm8.64-51.84c0-2.64,1.32-3.96,3.96-3.96s3.96,1.32,3.96,3.96-1.32,3.96-3.96,3.96-3.96-1.32-3.96-3.96Zm0,8.64c0-2.64,1.32-3.96,3.96-3.96s3.96,1.32,3.96,3.96-1.32,3.96-3.96,3.96-3.96-1.32-3.96-3.96Zm0,34.56c0-2.64,1.32-3.96,3.96-3.96s3.96,1.32,3.96,3.96-1.32,3.96-3.96,3.96-3.96-1.32-3.96-3.96Zm0,8.64c0-2.64,1.32-3.96,3.96-3.96s3.96,1.32,3.96,3.96-1.32,3.96-3.96,3.96-3.96-1.32-3.96-3.96Z"/></svg>